<svg width="143" height="128" viewBox="0 0 143 128" fill="none" xmlns="http://www.w3.org/2000/svg">
<g id="Button 1" clip-path="url(#clip0_3821_4279)">
<path id="Vector" d="M139 48H52C49.7909 48 48 49.7909 48 52V84C48 86.2091 49.7909 88 52 88H139C141.209 88 143 86.2091 143 84V52C143 49.7909 141.209 48 139 48Z" fill="#F05252"/>
<path id="Vector_2" d="M72 78C77.5228 78 82 73.5228 82 68C82 62.4772 77.5228 58 72 58C66.4772 58 62 62.4772 62 68C62 73.5228 66.4772 78 72 78Z" fill="white"/>
<path id="Vector_3" d="M98.1016 61.625V73H95.7656V61.625H98.1016ZM101.602 61.625V63.4609H92.3203V61.625H101.602ZM110.57 71.1719V73H104.516V71.1719H110.57ZM105.281 61.625V73H102.938V61.625H105.281ZM109.781 66.2578V68.0391H104.516V66.2578H109.781ZM110.562 61.625V63.4609H104.516V61.625H110.562ZM113.867 61.625L116.008 65.5938L118.148 61.625H120.828L117.523 67.2656L120.914 73H118.211L116.008 68.9531L113.805 73H111.086L114.484 67.2656L111.172 61.625H113.867ZM127.18 61.625V73H124.844V61.625H127.18ZM130.68 61.625V63.4609H121.398V61.625H130.68Z" fill="white"/>
<g id="Clip path group">
<mask id="mask0_3821_4279" style="mask-type:luminance" maskUnits="userSpaceOnUse" x="0" y="56" width="48" height="24">
<g id="clip0_2153_6266">
<path id="Vector_4" d="M48 56H0V80H48V56Z" fill="white"/>
</g>
</mask>
<g mask="url(#mask0_3821_4279)">
<g id="Group">
<path id="Vector_5" d="M48 68H0V69H48V68Z" fill="#0762C8"/>
<g id="Clip path group_2">
<mask id="mask1_3821_4279" style="mask-type:luminance" maskUnits="userSpaceOnUse" x="0" y="56" width="24" height="24">
<g id="clip1_2153_6266">
<path id="Vector_6" d="M24 68C24 61.3726 18.6274 56 12 56C5.37258 56 0 61.3726 0 68C0 74.6274 5.37258 80 12 80C18.6274 80 24 74.6274 24 68Z" fill="white"/>
</g>
</mask>
<g mask="url(#mask1_3821_4279)">
<g id="Group_2">
<path id="Vector_7" d="M24 68C24 61.3726 18.6274 56 12 56C5.37258 56 0 61.3726 0 68C0 74.6274 5.37258 80 12 80C18.6274 80 24 74.6274 24 68Z" fill="#0762C8"/>
<path id="Vector_8" d="M13.1825 63.2734V72.0007H12.1257V64.3814H12.0746L9.94385 65.7962V64.7223L12.1257 63.2734H13.1825Z" fill="white"/>
</g>
</g>
</g>
</g>
</g>
</g>
<g id="Clip path group_3">
<mask id="mask2_3821_4279" style="mask-type:luminance" maskUnits="userSpaceOnUse" x="60" y="0" width="24" height="56">
<g id="clip2_2153_6266">
<path id="Vector_9" d="M84 0H60V56H84V0Z" fill="white"/>
</g>
</mask>
<g mask="url(#mask2_3821_4279)">
<g id="Group_3">
<path id="Vector_10" d="M73 0H72V56H73V0Z" fill="#0762C8"/>
<g id="Clip path group_4">
<mask id="mask3_3821_4279" style="mask-type:luminance" maskUnits="userSpaceOnUse" x="60" y="0" width="24" height="24">
<g id="clip3_2153_6266">
<path id="Vector_11" d="M84 12C84 5.37258 78.6274 0 72 0C65.3726 0 60 5.37258 60 12C60 18.6274 65.3726 24 72 24C78.6274 24 84 18.6274 84 12Z" fill="white"/>
</g>
</mask>
<g mask="url(#mask3_3821_4279)">
<g id="Group_4">
<path id="Vector_12" d="M84 12C84 5.37258 78.6274 0 72 0C65.3726 0 60 5.37258 60 12C60 18.6274 65.3726 24 72 24C78.6274 24 84 18.6274 84 12Z" fill="#0762C8"/>
<path id="Vector_13" d="M69.2705 16.0009V15.2339L72.1512 12.0804C72.4892 11.7111 72.7677 11.3901 72.9864 11.1174C73.2052 10.8418 73.3671 10.5833 73.4722 10.3418C73.5802 10.0975 73.6341 9.8418 73.6341 9.57475C73.6341 9.26794 73.5603 9.00231 73.4125 8.77788C73.2677 8.55345 73.0688 8.38015 72.816 8.25799C72.5631 8.13583 72.279 8.07475 71.9637 8.07475C71.6285 8.07475 71.3358 8.14436 71.0858 8.28356C70.8387 8.41992 70.6469 8.61169 70.5106 8.85884C70.377 9.106 70.3103 9.39578 70.3103 9.72816H69.3046C69.3046 9.2168 69.4225 8.76794 69.6583 8.38157C69.8941 7.99521 70.2151 7.69407 70.6213 7.47816C71.0304 7.26225 71.4892 7.1543 71.9978 7.1543C72.5091 7.1543 72.9623 7.26225 73.3571 7.47816C73.752 7.69407 74.0617 7.98526 74.2861 8.35174C74.5106 8.71822 74.6228 9.12589 74.6228 9.57475C74.6228 9.89578 74.5645 10.2097 74.4481 10.5165C74.3344 10.8205 74.1356 11.16 73.8515 11.535C73.5702 11.9071 73.1796 12.3617 72.6796 12.8986L70.7194 14.9952V15.0634H74.7762V16.0009H69.2705Z" fill="white"/>
</g>
</g>
</g>
</g>
</g>
</g>
<path id="Vector_14" d="M119 75H118V117H119V75Z" fill="#0762C8"/>
<g id="Clip path group_5">
<mask id="mask4_3821_4279" style="mask-type:luminance" maskUnits="userSpaceOnUse" x="106" y="104" width="25" height="24">
<g id="clip4_2153_6266">
<path id="Vector_15" d="M130.32 116C130.32 109.373 124.947 104 118.32 104C111.693 104 106.32 109.373 106.32 116C106.32 122.627 111.693 128 118.32 128C124.947 128 130.32 122.627 130.32 116Z" fill="white"/>
</g>
</mask>
<g mask="url(#mask4_3821_4279)">
<g id="Group_5">
<path id="Vector_16" d="M130.32 116C130.32 109.373 124.947 104 118.32 104C111.693 104 106.32 109.373 106.32 116C106.32 122.627 111.693 128 118.32 128C124.947 128 130.32 122.627 130.32 116Z" fill="#0762C8"/>
<path id="Vector_17" d="M118.352 120.118C117.79 120.118 117.288 120.022 116.848 119.829C116.411 119.635 116.063 119.367 115.804 119.023C115.548 118.677 115.409 118.275 115.386 117.817H116.46C116.483 118.098 116.58 118.341 116.75 118.546C116.92 118.748 117.143 118.904 117.419 119.015C117.695 119.125 118 119.181 118.335 119.181C118.71 119.181 119.043 119.115 119.332 118.985C119.622 118.854 119.849 118.672 120.014 118.439C120.179 118.206 120.261 117.937 120.261 117.63C120.261 117.309 120.182 117.026 120.023 116.782C119.864 116.535 119.631 116.341 119.324 116.202C119.017 116.063 118.642 115.993 118.199 115.993H117.5V115.056H118.199C118.545 115.056 118.849 114.993 119.111 114.868C119.375 114.743 119.581 114.567 119.729 114.34C119.879 114.113 119.955 113.846 119.955 113.539C119.955 113.243 119.889 112.986 119.759 112.767C119.628 112.549 119.443 112.378 119.205 112.256C118.969 112.134 118.69 112.073 118.369 112.073C118.068 112.073 117.784 112.128 117.517 112.239C117.253 112.347 117.037 112.505 116.869 112.712C116.702 112.917 116.611 113.164 116.597 113.454H115.574C115.591 112.996 115.729 112.596 115.987 112.252C116.246 111.905 116.584 111.635 117.001 111.442C117.422 111.249 117.884 111.152 118.386 111.152C118.926 111.152 119.389 111.262 119.776 111.481C120.162 111.696 120.459 111.982 120.666 112.337C120.874 112.692 120.977 113.076 120.977 113.488C120.977 113.979 120.848 114.398 120.589 114.745C120.334 115.091 119.986 115.331 119.545 115.465V115.533C120.097 115.624 120.527 115.858 120.837 116.236C121.146 116.611 121.301 117.076 121.301 117.63C121.301 118.104 121.172 118.53 120.913 118.908C120.658 119.283 120.308 119.579 119.865 119.794C119.422 120.01 118.918 120.118 118.352 120.118Z" fill="white"/>
</g>
</g>
</g>
</g>
<defs>
<clipPath id="clip0_3821_4279">
<rect width="143" height="128" fill="white"/>
</clipPath>
</defs>
</svg>
