<svg width="21" height="20" viewBox="0 0 21 20" fill="none" xmlns="http://www.w3.org/2000/svg">
<g id="Clip path group">
<mask id="mask0_3821_4932" style="mask-type:luminance" maskUnits="userSpaceOnUse" x="0" y="0" width="21" height="20">
<g id="clip9_2153_6355">
<path id="Vector" d="M20.5 10C20.5 4.47715 16.0228 0 10.5 0C4.97715 0 0.5 4.47715 0.5 10C0.5 15.5228 4.97715 20 10.5 20C16.0228 20 20.5 15.5228 20.5 10Z" fill="white"/>
</g>
</mask>
<g mask="url(#mask0_3821_4932)">
<g id="Group">
<path id="Vector_2" d="M20.5 10C20.5 4.47715 16.0228 0 10.5 0C4.97715 0 0.5 4.47715 0.5 10C0.5 15.5228 4.97715 20 10.5 20C16.0228 20 20.5 15.5228 20.5 10Z" fill="#0762C8"/>
<path id="Vector_3" d="M10.5281 14.1194C9.92514 14.1194 9.38811 14.0094 8.91711 13.7874C8.44811 13.5654 8.07611 13.2604 7.80011 12.8714C7.52511 12.4824 7.38112 12.0364 7.37012 11.5334H9.1601C9.1801 11.8714 9.32212 12.1454 9.58612 12.3554C9.85012 12.5654 10.1641 12.6704 10.5281 12.6704C10.8171 12.6704 11.0731 12.6074 11.2951 12.4794C11.5191 12.3484 11.6941 12.1684 11.8191 11.9384C11.9471 11.7054 12.0101 11.4374 12.0101 11.1364C12.0101 10.8304 11.9451 10.5604 11.8151 10.3274C11.6871 10.0944 11.5091 9.91243 11.2821 9.78143C11.0551 9.65143 10.7951 9.58444 10.5021 9.58144C10.2461 9.58144 9.9981 9.63443 9.7561 9.73943C9.5181 9.84443 9.33212 9.98743 9.19812 10.1694L7.55811 9.87543L7.97113 5.27344H13.3101V6.78143H9.49213L9.26611 8.96744H9.31714C9.47114 8.75144 9.70215 8.57244 10.0121 8.43044C10.3221 8.28844 10.6681 8.21744 11.0521 8.21744C11.5771 8.21744 12.0501 8.34143 12.4601 8.58843C12.8701 8.83543 13.2001 9.17544 13.4301 9.60744C13.6701 10.0364 13.7901 10.5304 13.7901 11.0894C13.7901 11.6784 13.6501 12.2004 13.3801 12.6584C13.1101 13.1124 12.7201 13.4704 12.2301 13.7324C11.7441 13.9904 11.1751 14.1194 10.5281 14.1194Z" fill="white"/>
</g>
</g>
</g>
</svg>
