<svg width="175" height="36" viewBox="0 0 175 36" fill="none" xmlns="http://www.w3.org/2000/svg">
<g id="Clip path group">
<mask id="mask0_3821_4846" style="mask-type:luminance" maskUnits="userSpaceOnUse" x="0" y="0" width="175" height="36">
<g id="clip0_2153_6355">
<path id="Vector" d="M157 0H18C8.05887 0 0 8.05887 0 18C0 27.9411 8.05887 36 18 36H157C166.941 36 175 27.9411 175 18C175 8.05887 166.941 0 157 0Z" fill="white"/>
</g>
</mask>
<g mask="url(#mask0_3821_4846)">
<g id="Group">
<path id="Vector_2" d="M157 0H18C8.05887 0 0 8.05887 0 18C0 27.9411 8.05887 36 18 36H157C166.941 36 175 27.9411 175 18C175 8.05887 166.941 0 157 0Z" fill="white"/>
<path id="Vector_3" d="M20 28C25.5228 28 30 23.5228 30 18C30 12.4772 25.5228 8 20 8C14.4772 8 10 12.4772 10 18C10 23.5228 14.4772 28 20 28Z" fill="#333333"/>
<path id="Vector_4" d="M44.2812 21.4453V23H38.5704V21.4453H44.2812ZM39.1173 11.625V23H37.1562V11.625H39.1173ZM50.3751 21.3047V17.2734C50.3751 16.9714 50.3204 16.7109 50.211 16.4922C50.1017 16.2734 49.935 16.1042 49.711 15.9844C49.4923 15.8646 49.2162 15.8047 48.8829 15.8047C48.5756 15.8047 48.31 15.8568 48.086 15.9609C47.8621 16.0651 47.6876 16.2057 47.5626 16.3828C47.4376 16.5599 47.3751 16.7604 47.3751 16.9844H45.5001C45.5001 16.651 45.5808 16.3281 45.7423 16.0156C45.9037 15.7031 46.1381 15.4245 46.4454 15.1797C46.7527 14.9349 47.1199 14.7422 47.547 14.6016C47.9741 14.4609 48.4532 14.3906 48.9845 14.3906C49.6199 14.3906 50.1824 14.4974 50.672 14.7109C51.1668 14.9245 51.5548 15.2474 51.836 15.6797C52.1221 16.1068 52.2661 16.6432 52.2661 17.2891V21.0469C52.2661 21.4323 52.2921 21.7786 52.3441 22.0859C52.4011 22.388 52.4821 22.651 52.5861 22.875V23H50.6562C50.5677 22.7969 50.4975 22.5391 50.4454 22.2266C50.3985 21.9089 50.3751 21.6016 50.3751 21.3047ZM50.6485 17.8594L50.6642 19.0234H49.3126C48.9636 19.0234 48.6563 19.0573 48.3907 19.125C48.1251 19.1875 47.9037 19.2812 47.7267 19.4062C47.5496 19.5312 47.4168 19.6823 47.3282 19.8594C47.2397 20.0365 47.1954 20.237 47.1954 20.4609C47.1954 20.6849 47.2475 20.8906 47.3517 21.0781C47.4558 21.2604 47.6069 21.4036 47.8048 21.5078C48.0079 21.612 48.2527 21.6641 48.5392 21.6641C48.9246 21.6641 49.2605 21.5859 49.547 21.4297C49.8386 21.2682 50.0678 21.0729 50.2345 20.8438C50.4011 20.6094 50.4897 20.388 50.5001 20.1797L51.1095 21.0156C51.047 21.2292 50.9402 21.4583 50.7892 21.7031C50.6381 21.9479 50.4402 22.1823 50.1954 22.4062C49.9558 22.625 49.6668 22.8047 49.3282 22.9453C48.9949 23.0859 48.6095 23.1562 48.172 23.1562C47.6199 23.1562 47.1277 23.0469 46.6954 22.8281C46.2631 22.6042 45.9246 22.3047 45.6798 21.9297C45.435 21.5495 45.3126 21.1198 45.3126 20.6406C45.3126 20.1927 45.3959 19.7969 45.5626 19.4531C45.7345 19.1042 45.9845 18.8125 46.3126 18.5781C46.6459 18.3438 47.0521 18.1667 47.5312 18.0469C48.0105 17.9219 48.5574 17.8594 49.172 17.8594H50.6485ZM54.2421 11H56.1251V21.1953L55.9451 23H54.2421V11ZM61.6411 18.6953V18.8594C61.6411 19.4844 61.5701 20.0599 61.4301 20.5859C61.2941 21.1068 61.0861 21.5599 60.8051 21.9453C60.5291 22.3307 60.1851 22.6302 59.7731 22.8438C59.3671 23.0521 58.8961 23.1562 58.3591 23.1562C57.8331 23.1562 57.3751 23.0573 56.9841 22.8594C56.5941 22.6615 56.2661 22.3802 56.0001 22.0156C55.7401 21.651 55.5291 21.2161 55.3671 20.7109C55.2061 20.2057 55.0911 19.6484 55.0231 19.0391V18.5156C55.0911 17.901 55.2061 17.3438 55.3671 16.8438C55.5291 16.3385 55.7401 15.9036 56.0001 15.5391C56.2661 15.1693 56.5911 14.8854 56.9771 14.6875C57.3671 14.4896 57.8231 14.3906 58.3441 14.3906C58.8851 14.3906 59.3621 14.4948 59.7731 14.7031C60.1901 14.9115 60.5361 15.2083 60.812 15.5938C61.0891 15.974 61.2941 16.4271 61.4301 16.9531C61.5701 17.4792 61.6411 18.0599 61.6411 18.6953ZM59.7581 18.8594V18.6953C59.7581 18.3151 59.7271 17.9583 59.6641 17.625C59.6021 17.2865 59.4971 16.9896 59.3521 16.7344C59.2111 16.4792 59.0181 16.2786 58.7731 16.1328C58.5341 15.9818 58.2341 15.9062 57.8751 15.9062C57.5421 15.9062 57.2551 15.9635 57.0161 16.0781C56.7761 16.1927 56.5761 16.349 56.4141 16.5469C56.2531 16.7448 56.1251 16.974 56.0311 17.2344C55.9431 17.4948 55.8831 17.776 55.8521 18.0781V19.4922C55.8981 19.8828 55.9971 20.2422 56.1481 20.5703C56.3051 20.8932 56.5231 21.1536 56.8051 21.3516C57.0861 21.5443 57.4481 21.6406 57.8911 21.6406C58.2401 21.6406 58.5341 21.5703 58.7731 21.4297C59.0131 21.2891 59.2031 21.0938 59.3441 20.8438C59.4901 20.5885 59.5941 20.2917 59.6561 19.9531C59.7241 19.6146 59.7581 19.25 59.7581 18.8594ZM66.9611 23.1562C66.3361 23.1562 65.7711 23.0547 65.2661 22.8516C64.7661 22.6432 64.3391 22.3542 63.9841 21.9844C63.6351 21.6146 63.3671 21.1797 63.1801 20.6797C62.9921 20.1797 62.8981 19.6406 62.8981 19.0625V18.75C62.8981 18.0885 62.9951 17.4896 63.1881 16.9531C63.3801 16.4167 63.6481 15.9583 63.9921 15.5781C64.3361 15.1927 64.7421 14.8984 65.2111 14.6953C65.6801 14.4922 66.1881 14.3906 66.7341 14.3906C67.3391 14.3906 67.8671 14.4922 68.3201 14.6953C68.7731 14.8984 69.1481 15.1849 69.4451 15.5547C69.7471 15.9193 69.9711 16.3542 70.1171 16.8594C70.2681 17.3646 70.3441 17.9219 70.3441 18.5312V19.3359H63.812V17.9844H68.4841V17.8359C68.4741 17.4974 68.4061 17.1797 68.2811 16.8828C68.1611 16.5859 67.9771 16.3464 67.7271 16.1641C67.4771 15.9818 67.1431 15.8906 66.7271 15.8906C66.4141 15.8906 66.1351 15.9583 65.8911 16.0938C65.6511 16.224 65.4511 16.4141 65.2891 16.6641C65.1281 16.9141 65.0031 17.2161 64.9141 17.5703C64.8311 17.9193 64.7891 18.3125 64.7891 18.75V19.0625C64.7891 19.4323 64.8391 19.776 64.9381 20.0938C65.0421 20.4062 65.1931 20.6797 65.3911 20.9141C65.5891 21.1484 65.8281 21.3333 66.1091 21.4688C66.3911 21.599 66.7111 21.6641 67.0701 21.6641C67.5231 21.6641 67.9271 21.5729 68.2811 21.3906C68.6351 21.2083 68.9431 20.9505 69.2031 20.6172L70.1951 21.5781C70.0131 21.8438 69.7761 22.099 69.4841 22.3438C69.1931 22.5833 68.8361 22.7786 68.4141 22.9297C67.9971 23.0807 67.5131 23.1562 66.9611 23.1562ZM73.8281 11V23H71.9381V11H73.8281ZM83.7501 14.5469V15.9219H78.9841V14.5469H83.7501ZM80.359 12.4766H82.2421V20.6641C82.2421 20.9245 82.2791 21.125 82.3521 21.2656C82.4301 21.401 82.536 21.4922 82.6721 21.5391C82.807 21.5859 82.966 21.6094 83.148 21.6094C83.279 21.6094 83.404 21.6016 83.523 21.5859C83.643 21.5703 83.7401 21.5547 83.812 21.5391L83.8201 22.9766C83.6641 23.0234 83.482 23.0651 83.273 23.1016C83.07 23.138 82.8361 23.1562 82.5701 23.1562C82.1381 23.1562 81.7551 23.0807 81.4221 22.9297C81.0891 22.7734 80.8281 22.5208 80.6411 22.1719C80.4531 21.8229 80.359 21.3594 80.359 20.7812V12.4766ZM88.93 23.1562C88.305 23.1562 87.74 23.0547 87.234 22.8516C86.734 22.6432 86.3071 22.3542 85.9531 21.9844C85.6041 21.6146 85.336 21.1797 85.148 20.6797C84.961 20.1797 84.8671 19.6406 84.8671 19.0625V18.75C84.8671 18.0885 84.9641 17.4896 85.1561 16.9531C85.3491 16.4167 85.6171 15.9583 85.9611 15.5781C86.3051 15.1927 86.711 14.8984 87.18 14.6953C87.648 14.4922 88.1561 14.3906 88.7031 14.3906C89.3071 14.3906 89.8361 14.4922 90.2891 14.6953C90.7421 14.8984 91.1171 15.1849 91.4141 15.5547C91.7161 15.9193 91.9401 16.3542 92.0861 16.8594C92.2371 17.3646 92.312 17.9219 92.312 18.5312V19.3359H85.7811V17.9844H90.4531V17.8359C90.4431 17.4974 90.3751 17.1797 90.2501 16.8828C90.1301 16.5859 89.9451 16.3464 89.6951 16.1641C89.4451 15.9818 89.1121 15.8906 88.6951 15.8906C88.3831 15.8906 88.104 15.9583 87.859 16.0938C87.62 16.224 87.419 16.4141 87.258 16.6641C87.0961 16.9141 86.9711 17.2161 86.883 17.5703C86.799 17.9193 86.758 18.3125 86.758 18.75V19.0625C86.758 19.4323 86.8071 19.776 86.9061 20.0938C87.0101 20.4062 87.161 20.6797 87.359 20.9141C87.557 21.1484 87.7971 21.3333 88.0781 21.4688C88.3591 21.599 88.6801 21.6641 89.0391 21.6641C89.4921 21.6641 89.8961 21.5729 90.2501 21.3906C90.6041 21.2083 90.911 20.9505 91.1721 20.6172L92.1641 21.5781C91.9821 21.8438 91.7451 22.099 91.4531 22.3438C91.1611 22.5833 90.805 22.7786 90.383 22.9297C89.966 23.0807 89.482 23.1562 88.93 23.1562ZM95.219 14.5469L96.8281 17.3516L98.469 14.5469H100.539L97.9771 18.6953L100.641 23H98.5701L96.8521 20.0781L95.133 23H93.055L95.7111 18.6953L93.1561 14.5469H95.219ZM105.703 14.5469V15.9219H100.938V14.5469H105.703ZM102.312 12.4766H104.195V20.6641C104.195 20.9245 104.232 21.125 104.305 21.2656C104.383 21.401 104.49 21.4922 104.625 21.5391C104.76 21.5859 104.919 21.6094 105.102 21.6094C105.232 21.6094 105.357 21.6016 105.477 21.5859C105.596 21.5703 105.693 21.5547 105.766 21.5391L105.773 22.9766C105.617 23.0234 105.435 23.0651 105.227 23.1016C105.023 23.138 104.789 23.1562 104.523 23.1562C104.091 23.1562 103.708 23.0807 103.375 22.9297C103.042 22.7734 102.781 22.5208 102.594 22.1719C102.406 21.8229 102.312 21.3594 102.312 20.7812V12.4766Z" fill="#333333"/>
<path id="Vector_5" d="M119 24.6673C122.682 24.6673 125.667 21.6826 125.667 18.0007C125.667 14.3188 122.682 11.334 119 11.334C115.318 11.334 112.333 14.3188 112.333 18.0007C112.333 21.6826 115.318 24.6673 119 24.6673Z" fill="#333333"/>
<path id="Vector_6" d="M139 24.6673C142.682 24.6673 145.667 21.6826 145.667 18.0007C145.667 14.3188 142.682 11.334 139 11.334C135.318 11.334 132.333 14.3188 132.333 18.0007C132.333 21.6826 135.318 24.6673 139 24.6673Z" fill="#333333"/>
<path id="Vector_7" d="M159 24.6673C162.682 24.6673 165.667 21.6826 165.667 18.0007C165.667 14.3188 162.682 11.334 159 11.334C155.318 11.334 152.333 14.3188 152.333 18.0007C152.333 21.6826 155.318 24.6673 159 24.6673Z" fill="#333333"/>
</g>
</g>
</g>
</svg>
