<svg width="20" height="20" viewBox="0 0 20 20" fill="none" xmlns="http://www.w3.org/2000/svg">
<g id="Clip path group">
<mask id="mask0_3821_4876" style="mask-type:luminance" maskUnits="userSpaceOnUse" x="0" y="0" width="20" height="20">
<g id="clip3_2153_6355">
<path id="Vector" d="M20 10C20 4.47715 15.5228 0 10 0C4.47715 0 0 4.47715 0 10C0 15.5228 4.47715 20 10 20C15.5228 20 20 15.5228 20 10Z" fill="white"/>
</g>
</mask>
<g mask="url(#mask0_3821_4876)">
<g id="Group">
<path id="Vector_2" d="M20 10C20 4.47715 15.5228 0 10 0C4.47715 0 0 4.47715 0 10C0 15.5228 4.47715 20 10 20C15.5228 20 20 15.5228 20 10Z" fill="#0762C8"/>
<path id="Vector_3" d="M6.92804 13.9993V12.6693L10.035 9.79334C10.299 9.53734 10.52 9.30734 10.699 9.10334C10.881 8.89834 11.019 8.69834 11.113 8.50234C11.206 8.30334 11.253 8.08835 11.253 7.85835C11.253 7.60334 11.195 7.38334 11.079 7.19834C10.962 7.01034 10.803 6.86734 10.601 6.76734C10.4 6.66534 10.171 6.61434 9.91504 6.61434C9.64804 6.61434 9.41503 6.66834 9.21603 6.77634C9.01803 6.88434 8.86404 7.03934 8.75604 7.24034C8.64804 7.44234 8.59402 7.68234 8.59402 7.96134H6.84302C6.84302 7.39034 6.97202 6.89434 7.23102 6.47334C7.48902 6.05334 7.85102 5.72834 8.31702 5.49834C8.78302 5.26734 9.32004 5.15234 9.92804 5.15234C10.553 5.15234 11.097 5.26334 11.56 5.48534C12.026 5.70434 12.388 6.00835 12.647 6.39735C12.905 6.78635 13.035 7.23234 13.035 7.73534C13.035 8.06434 12.969 8.39034 12.839 8.71134C12.711 9.03234 12.482 9.38834 12.153 9.78034C11.823 10.1693 11.358 10.6373 10.759 11.1823L9.48502 12.4313V12.4903H13.15V13.9993H6.92804Z" fill="white"/>
</g>
</g>
</g>
</svg>
