<svg width="20" height="20" viewBox="0 0 20 20" fill="none" xmlns="http://www.w3.org/2000/svg">
<g id="Clip path group">
<mask id="mask0_3821_4857" style="mask-type:luminance" maskUnits="userSpaceOnUse" x="0" y="0" width="20" height="20">
<g id="clip1_2153_6355">
<path id="Vector" d="M20 10C20 4.47715 15.5228 0 10 0C4.47715 0 0 4.47715 0 10C0 15.5228 4.47715 20 10 20C15.5228 20 20 15.5228 20 10Z" fill="white"/>
</g>
</mask>
<g mask="url(#mask0_3821_4857)">
<g id="Group">
<path id="Vector_2" d="M20 10C20 4.47715 15.5228 0 10 0C4.47715 0 0 4.47715 0 10C0 15.5228 4.47715 20 10 20C15.5228 20 20 15.5228 20 10Z" fill="#0762C8"/>
<path id="Vector_3" d="M11.5691 5.27344V14.0004H9.72407V7.02444H9.67207L7.67407 8.27744V6.64143L9.83407 5.27344H11.5691Z" fill="white"/>
</g>
</g>
</g>
</svg>
