<svg width="20" height="20" viewBox="0 0 20 20" fill="none" xmlns="http://www.w3.org/2000/svg">
<g id="Clip path group">
<mask id="mask0_3821_4894" style="mask-type:luminance" maskUnits="userSpaceOnUse" x="0" y="0" width="20" height="20">
<g id="clip5_2153_6355">
<path id="Vector" d="M20 10C20 4.47715 15.5228 0 10 0C4.47715 0 0 4.47715 0 10C0 15.5228 4.47715 20 10 20C15.5228 20 20 15.5228 20 10Z" fill="white"/>
</g>
</mask>
<g mask="url(#mask0_3821_4894)">
<g id="Group">
<path id="Vector_2" d="M20 10C20 4.47715 15.5228 0 10 0C4.47715 0 0 4.47715 0 10C0 15.5228 4.47715 20 10 20C15.5228 20 20 15.5228 20 10Z" fill="#0762C8"/>
<path id="Vector_3" d="M9.97803 14.1183C9.34203 14.1183 8.77502 14.0093 8.27802 13.7903C7.78402 13.5693 7.39302 13.2653 7.10602 12.8783C6.82202 12.4893 6.67599 12.0403 6.66699 11.5323H8.52502C8.53602 11.7453 8.60601 11.9323 8.73401 12.0943C8.86501 12.2533 9.03803 12.3773 9.25403 12.4653C9.47003 12.5533 9.71299 12.5973 9.98199 12.5973C10.264 12.5973 10.512 12.5473 10.728 12.4483C10.944 12.3483 11.113 12.2113 11.235 12.0353C11.357 11.8583 11.419 11.6553 11.419 11.4253C11.419 11.1923 11.353 10.9863 11.222 10.8073C11.095 10.6253 10.91 10.4833 10.669 10.3813C10.43 10.2793 10.146 10.2283 9.81598 10.2283H9.00201V8.87334H9.81598C10.095 8.87334 10.34 8.82434 10.553 8.72834C10.769 8.63134 10.937 8.49835 11.056 8.32735C11.176 8.15435 11.235 7.95234 11.235 7.72234C11.235 7.50334 11.183 7.31135 11.078 7.14735C10.975 6.97935 10.83 6.84834 10.643 6.75534C10.458 6.66134 10.242 6.61434 9.995 6.61434C9.745 6.61434 9.51702 6.66034 9.30902 6.75034C9.10202 6.83834 8.93597 6.96534 8.81097 7.13034C8.68597 7.29434 8.61899 7.48834 8.60999 7.70934H6.84198C6.84998 7.20634 6.99397 6.76334 7.27197 6.38034C7.55097 5.99634 7.92597 5.69635 8.39697 5.48135C8.87197 5.26235 9.40703 5.15234 10.004 5.15234C10.606 5.15234 11.133 5.26235 11.585 5.48135C12.036 5.69935 12.387 5.99534 12.637 6.36734C12.89 6.73634 13.015 7.15134 13.012 7.61134C13.015 8.10034 12.863 8.50834 12.556 8.83434C12.252 9.16134 11.856 9.36834 11.367 9.45634V9.52534C12.009 9.60734 12.498 9.83034 12.833 10.1943C13.171 10.5543 13.339 11.0063 13.336 11.5493C13.339 12.0463 13.195 12.4883 12.906 12.8743C12.619 13.2603 12.222 13.5643 11.717 13.7863C11.211 14.0083 10.632 14.1183 9.97803 14.1183Z" fill="white"/>
</g>
</g>
</g>
</svg>
