<svg width="152" height="99" viewBox="0 0 152 99" fill="none" xmlns="http://www.w3.org/2000/svg">
<g opacity="0.2">
<rect x="56" y="56" width="95" height="40" rx="4" fill="#F05252"/>
<path d="M80 86C85.5228 86 90 81.5228 90 76C90 70.4772 85.5228 66 80 66C74.4772 66 70 70.4772 70 76C70 81.5228 74.4772 86 80 86Z" fill="white"/>
<path d="M106.102 69.625V81H103.766V69.625H106.102ZM109.602 69.625V71.4609H100.32V69.625H109.602ZM118.57 79.1719V81H112.516V79.1719H118.57ZM113.281 69.625V81H110.938V69.625H113.281ZM117.781 74.2578V76.0391H112.516V74.2578H117.781ZM118.562 69.625V71.4609H112.516V69.625H118.562ZM121.867 69.625L124.008 73.5938L126.148 69.625H128.828L125.523 75.2656L128.914 81H126.211L124.008 76.9531L121.805 81H119.086L122.484 75.2656L119.172 69.625H121.867ZM135.18 69.625V81H132.844V69.625H135.18ZM138.68 69.625V71.4609H129.398V69.625H138.68Z" fill="white"/>
</g>
<g opacity="0.2">
<rect x="56" y="56" width="95" height="40" rx="4" fill="#F05252"/>
<path d="M80 86C85.5228 86 90 81.5228 90 76C90 70.4772 85.5228 66 80 66C74.4772 66 70 70.4772 70 76C70 81.5228 74.4772 86 80 86Z" fill="white"/>
<path d="M106.102 69.625V81H103.766V69.625H106.102ZM109.602 69.625V71.4609H100.32V69.625H109.602ZM118.57 79.1719V81H112.516V79.1719H118.57ZM113.281 69.625V81H110.938V69.625H113.281ZM117.781 74.2578V76.0391H112.516V74.2578H117.781ZM118.562 69.625V71.4609H112.516V69.625H118.562ZM121.867 69.625L124.008 73.5938L126.148 69.625H128.828L125.523 75.2656L128.914 81H126.211L124.008 76.9531L121.805 81H119.086L122.484 75.2656L119.172 69.625H121.867ZM135.18 69.625V81H132.844V69.625H135.18ZM138.68 69.625V71.4609H129.398V69.625H138.68Z" fill="white"/>
</g>
<rect x="55.5" y="55.5" width="96" height="41" stroke="#0762C8"/>
<g clip-path="url(#clip0_3821_4343)">
<mask maskUnits="userSpaceOnUse" x="0" y="0" width="0" height="0" fill="black">
<rect fill="white" width="0" height="0"/>
</mask>
<path d="M0.292893 7.29289C-0.0976311 7.68342 -0.0976311 8.31658 0.292893 8.70711L6.65685 15.0711C7.04738 15.4616 7.68054 15.4616 8.07107 15.0711C8.46159 14.6805 8.46159 14.0474 8.07107 13.6569L2.41421 8L8.07107 2.34315C8.46159 1.95262 8.46159 1.31946 8.07107 0.928932C7.68054 0.538408 7.04738 0.538408 6.65685 0.928932L0.292893 7.29289ZM31.7071 8.70711C32.0976 8.31658 32.0976 7.68342 31.7071 7.29289L25.3431 0.928932C24.9526 0.538408 24.3195 0.538408 23.9289 0.928932C23.5384 1.31946 23.5384 1.95262 23.9289 2.34315L29.5858 8L23.9289 13.6569C23.5384 14.0474 23.5384 14.6805 23.9289 15.0711C24.3195 15.4616 24.9526 15.4616 25.3431 15.0711L31.7071 8.70711ZM1 9H31V7H1V9Z" fill="#7D7F82" mask="url(#)"/>
</g>
<path fill-rule="evenodd" clip-rule="evenodd" d="M0.00010699 0L0 1L0.00010699 5.02401L0 6.02401L0.00010699 10.0185L0 11.0185L0.00010699 15.014L0 16.014H1.00011H4.98911H5.98911H10.0113H11.0113H15H16V15.014V11.0185V10.0185V6.02401V5.02401V1V0H15H11.0113H10.0113H5.98911H4.98911H1.00011H0.00010699ZM1.00011 1V5.02401H4.98911V1H1.00011ZM1.00011 6.02401V10.0185H4.98911V6.02401H1.00011ZM1.00011 11.0185V15.014H4.98911V11.0185H1.00011ZM15 11.0185V15.014H11.0113V11.0185H15ZM15 6.02401V10.0185H11.0113V6.02401H15ZM15 1V5.02401H11.0113V1H15ZM10.0113 1H5.98911V4.99149H10.0113V1ZM10.0113 11.0225H5.98911V15.014H10.0113V11.0225Z" fill="#7D7F82"/>
<g clip-path="url(#clip1_3821_4343)">
<line x1="8.25" y1="56.75" x2="8.25" y2="95.25" stroke="#0762C8" stroke-width="1.5" stroke-linecap="square"/>
<line x1="13.25" y1="56.75" x2="2.75" y2="56.75" stroke="#0762C8" stroke-width="1.5" stroke-linecap="round"/>
<line x1="2.75" y1="95.25" x2="13.25" y2="95.25" stroke="#0762C8" stroke-width="1.5" stroke-linecap="round"/>
</g>
<g clip-path="url(#clip2_3821_4343)">
<mask maskUnits="userSpaceOnUse" x="0" y="0" width="0" height="0" fill="black">
<rect fill="white" width="0" height="0"/>
</mask>
<path d="M46.2197 6.71967C45.9268 7.01256 45.9268 7.48744 46.2197 7.78033L50.9926 12.5533C51.2855 12.8462 51.7604 12.8462 52.0533 12.5533C52.3462 12.2604 52.3462 11.7855 52.0533 11.4926L47.8107 7.25L52.0533 3.00736C52.3462 2.71447 52.3462 2.23959 52.0533 1.9467C51.7604 1.65381 51.2855 1.65381 50.9926 1.9467L46.2197 6.71967ZM102.78 7.78033C103.073 7.48744 103.073 7.01256 102.78 6.71967L98.0074 1.9467C97.7145 1.65381 97.2396 1.65381 96.9467 1.9467C96.6538 2.23959 96.6538 2.71447 96.9467 3.00736L101.189 7.25L96.9467 11.4926C96.6538 11.7855 96.6538 12.2604 96.9467 12.5533C97.2396 12.8462 97.7145 12.8462 98.0074 12.5533L102.78 7.78033ZM46.75 8H102.25V6.5H46.75V8Z" fill="#0762C8" mask="url(#)"/>
<mask maskUnits="userSpaceOnUse" x="0" y="0" width="0" height="0" fill="black">
<rect fill="white" width="0" height="0"/>
</mask>
<path d="M104.22 6.71967C103.927 7.01256 103.927 7.48744 104.22 7.78033L108.993 12.5533C109.286 12.8462 109.76 12.8462 110.053 12.5533C110.346 12.2604 110.346 11.7855 110.053 11.4926L105.811 7.25L110.053 3.00736C110.346 2.71447 110.346 2.23959 110.053 1.9467C109.76 1.65381 109.286 1.65381 108.993 1.9467L104.22 6.71967ZM160.78 7.78033C161.073 7.48744 161.073 7.01256 160.78 6.71967L156.007 1.9467C155.714 1.65381 155.24 1.65381 154.947 1.9467C154.654 2.23959 154.654 2.71447 154.947 3.00736L159.189 7.25L154.947 11.4926C154.654 11.7855 154.654 12.2604 154.947 12.5533C155.24 12.8462 155.714 12.8462 156.007 12.5533L160.78 7.78033ZM104.75 8H160.25V6.5H104.75V8Z" fill="#0762C8" mask="url(#)"/>
</g>
<rect x="92" y="64" width="8" height="24" fill="#C54600" fill-opacity="0.3"/>
<line x1="92.5" y1="40" x2="92.5" y2="96" stroke="#9063CD"/>
<line x1="99.5" y1="40" x2="99.5" y2="96" stroke="#9063CD"/>
<path d="M95.9631 36.1193C95.3068 36.1193 94.723 36.0128 94.2116 35.7997C93.7031 35.5838 93.304 35.2898 93.0142 34.9176C92.7244 34.5455 92.5795 34.1236 92.5795 33.652C92.5795 33.2884 92.6619 32.9545 92.8267 32.6506C92.9943 32.3438 93.2216 32.0895 93.5085 31.8878C93.7955 31.6832 94.1165 31.5526 94.4716 31.4957V31.4361C94.0057 31.3423 93.6278 31.1165 93.3381 30.7585C93.0483 30.3977 92.9034 29.9787 92.9034 29.5014C92.9034 29.0497 93.0355 28.6477 93.2997 28.2955C93.5639 27.9403 93.9261 27.6619 94.3864 27.4602C94.8494 27.2557 95.375 27.1534 95.9631 27.1534C96.5511 27.1534 97.0753 27.2557 97.5355 27.4602C97.9986 27.6648 98.3622 27.9446 98.6264 28.2997C98.8906 28.652 99.0241 29.0526 99.027 29.5014C99.0241 29.9815 98.8764 30.4006 98.5838 30.7585C98.2912 31.1165 97.9162 31.3423 97.4588 31.4361V31.4957C97.8082 31.5526 98.125 31.6832 98.4091 31.8878C98.696 32.0895 98.9233 32.3438 99.0909 32.6506C99.2614 32.9545 99.348 33.2884 99.3509 33.652C99.348 34.1236 99.2017 34.5455 98.9119 34.9176C98.6222 35.2898 98.2216 35.5838 97.7102 35.7997C97.2017 36.0128 96.6193 36.1193 95.9631 36.1193ZM95.9631 34.7642C96.2557 34.7642 96.5114 34.7116 96.7301 34.6065C96.9489 34.4986 97.1193 34.3509 97.2415 34.1634C97.3665 33.973 97.429 33.7543 97.429 33.5071C97.429 33.2543 97.3651 33.0312 97.2372 32.8381C97.1094 32.642 96.9361 32.4886 96.7173 32.3778C96.4986 32.2642 96.2472 32.2074 95.9631 32.2074C95.6818 32.2074 95.4304 32.2642 95.2088 32.3778C94.9872 32.4886 94.8125 32.642 94.6847 32.8381C94.5597 33.0312 94.4972 33.2543 94.4972 33.5071C94.4972 33.7543 94.5582 33.973 94.6804 34.1634C94.8026 34.3509 94.9744 34.4986 95.196 34.6065C95.4176 34.7116 95.6733 34.7642 95.9631 34.7642ZM95.9631 30.8651C96.2074 30.8651 96.4247 30.8153 96.6151 30.7159C96.8054 30.6165 96.9545 30.4787 97.0625 30.3026C97.1705 30.1264 97.2244 29.9233 97.2244 29.6932C97.2244 29.4659 97.1705 29.267 97.0625 29.0966C96.9545 28.9233 96.8068 28.7884 96.6193 28.6918C96.4318 28.5923 96.2131 28.5426 95.9631 28.5426C95.7159 28.5426 95.4972 28.5923 95.3068 28.6918C95.1165 28.7884 94.9673 28.9233 94.8594 29.0966C94.7543 29.267 94.7017 29.4659 94.7017 29.6932C94.7017 29.9233 94.7557 30.1264 94.8636 30.3026C94.9716 30.4787 95.1207 30.6165 95.3111 30.7159C95.5014 30.8153 95.7188 30.8651 95.9631 30.8651Z" fill="#9063CD"/>
<rect x="68" y="64" width="24" height="24" fill="#0762C8" fill-opacity="0.2"/>
<g clip-path="url(#clip3_3821_4343)">
<mask maskUnits="userSpaceOnUse" x="0" y="0" width="0" height="0" fill="black">
<rect fill="white" width="0" height="0"/>
</mask>
<path d="M90.1464 47.1464C89.9512 47.3417 89.9512 47.6583 90.1464 47.8536L93.3284 51.0355C93.5237 51.2308 93.8403 51.2308 94.0355 51.0355C94.2308 50.8403 94.2308 50.5237 94.0355 50.3284L91.2071 47.5L94.0355 44.6716C94.2308 44.4763 94.2308 44.1597 94.0355 43.9645C93.8403 43.7692 93.5237 43.7692 93.3284 43.9645L90.1464 47.1464ZM118.854 47.8536C119.049 47.6583 119.049 47.3417 118.854 47.1464L115.672 43.9645C115.476 43.7692 115.16 43.7692 114.964 43.9645C114.769 44.1597 114.769 44.4763 114.964 44.6716L117.793 47.5L114.964 50.3284C114.769 50.5237 114.769 50.8403 114.964 51.0355C115.16 51.2308 115.476 51.2308 115.672 51.0355L118.854 47.8536ZM90.5 48H118.5V47H90.5V48Z" fill="#0762C8" mask="url(#)"/>
<mask maskUnits="userSpaceOnUse" x="0" y="0" width="0" height="0" fill="black">
<rect fill="white" width="0" height="0"/>
</mask>
<path d="M120.146 47.1464C119.951 47.3417 119.951 47.6583 120.146 47.8536L123.328 51.0355C123.524 51.2308 123.84 51.2308 124.036 51.0355C124.231 50.8403 124.231 50.5237 124.036 50.3284L121.207 47.5L124.036 44.6716C124.231 44.4763 124.231 44.1597 124.036 43.9645C123.84 43.7692 123.524 43.7692 123.328 43.9645L120.146 47.1464ZM148.854 47.8536C149.049 47.6583 149.049 47.3417 148.854 47.1464L145.672 43.9645C145.476 43.7692 145.16 43.7692 144.964 43.9645C144.769 44.1597 144.769 44.4763 144.964 44.6716L147.793 47.5L144.964 50.3284C144.769 50.5237 144.769 50.8403 144.964 51.0355C145.16 51.2308 145.476 51.2308 145.672 51.0355L148.854 47.8536ZM120.5 48H148.5V47H120.5V48Z" fill="#0762C8" mask="url(#)"/>
</g>
<rect x="100" y="66" width="39" height="20" fill="#0762C8" fill-opacity="0.2"/>
<rect x="56" y="56" width="95" height="8" fill="#25A725" fill-opacity="0.3"/>
<line x1="40" y1="56.5" x2="151" y2="56.5" stroke="#25A725"/>
<line x1="40" y1="63.5" x2="151" y2="63.5" stroke="#25A725"/>
<path d="M31.9631 64.1193C31.3068 64.1193 30.723 64.0128 30.2116 63.7997C29.7031 63.5838 29.304 63.2898 29.0142 62.9176C28.7244 62.5455 28.5795 62.1236 28.5795 61.652C28.5795 61.2884 28.6619 60.9545 28.8267 60.6506C28.9943 60.3438 29.2216 60.0895 29.5085 59.8878C29.7955 59.6832 30.1165 59.5526 30.4716 59.4957V59.4361C30.0057 59.3423 29.6278 59.1165 29.3381 58.7585C29.0483 58.3977 28.9034 57.9787 28.9034 57.5014C28.9034 57.0497 29.0355 56.6477 29.2997 56.2955C29.5639 55.9403 29.9261 55.6619 30.3864 55.4602C30.8494 55.2557 31.375 55.1534 31.9631 55.1534C32.5511 55.1534 33.0753 55.2557 33.5355 55.4602C33.9986 55.6648 34.3622 55.9446 34.6264 56.2997C34.8906 56.652 35.0241 57.0526 35.027 57.5014C35.0241 57.9815 34.8764 58.4006 34.5838 58.7585C34.2912 59.1165 33.9162 59.3423 33.4588 59.4361V59.4957C33.8082 59.5526 34.125 59.6832 34.4091 59.8878C34.696 60.0895 34.9233 60.3438 35.0909 60.6506C35.2614 60.9545 35.348 61.2884 35.3509 61.652C35.348 62.1236 35.2017 62.5455 34.9119 62.9176C34.6222 63.2898 34.2216 63.5838 33.7102 63.7997C33.2017 64.0128 32.6193 64.1193 31.9631 64.1193ZM31.9631 62.7642C32.2557 62.7642 32.5114 62.7116 32.7301 62.6065C32.9489 62.4986 33.1193 62.3509 33.2415 62.1634C33.3665 61.973 33.429 61.7543 33.429 61.5071C33.429 61.2543 33.3651 61.0312 33.2372 60.8381C33.1094 60.642 32.9361 60.4886 32.7173 60.3778C32.4986 60.2642 32.2472 60.2074 31.9631 60.2074C31.6818 60.2074 31.4304 60.2642 31.2088 60.3778C30.9872 60.4886 30.8125 60.642 30.6847 60.8381C30.5597 61.0312 30.4972 61.2543 30.4972 61.5071C30.4972 61.7543 30.5582 61.973 30.6804 62.1634C30.8026 62.3509 30.9744 62.4986 31.196 62.6065C31.4176 62.7116 31.6733 62.7642 31.9631 62.7642ZM31.9631 58.8651C32.2074 58.8651 32.4247 58.8153 32.6151 58.7159C32.8054 58.6165 32.9545 58.4787 33.0625 58.3026C33.1705 58.1264 33.2244 57.9233 33.2244 57.6932C33.2244 57.4659 33.1705 57.267 33.0625 57.0966C32.9545 56.9233 32.8068 56.7884 32.6193 56.6918C32.4318 56.5923 32.2131 56.5426 31.9631 56.5426C31.7159 56.5426 31.4972 56.5923 31.3068 56.6918C31.1165 56.7884 30.9673 56.9233 30.8594 57.0966C30.7543 57.267 30.7017 57.4659 30.7017 57.6932C30.7017 57.9233 30.7557 58.1264 30.8636 58.3026C30.9716 58.4787 31.1207 58.6165 31.3111 58.7159C31.5014 58.8153 31.7188 58.8651 31.9631 58.8651Z" fill="#25A725"/>
<rect x="56" y="88" width="95" height="8" fill="#25A725" fill-opacity="0.3"/>
<line x1="40" y1="88.5" x2="151" y2="88.5" stroke="#25A725"/>
<line x1="40" y1="95.5" x2="151" y2="95.5" stroke="#25A725"/>
<path d="M31.9631 96.1193C31.3068 96.1193 30.723 96.0128 30.2116 95.7997C29.7031 95.5838 29.304 95.2898 29.0142 94.9176C28.7244 94.5455 28.5795 94.1236 28.5795 93.652C28.5795 93.2884 28.6619 92.9545 28.8267 92.6506C28.9943 92.3438 29.2216 92.0895 29.5085 91.8878C29.7955 91.6832 30.1165 91.5526 30.4716 91.4957V91.4361C30.0057 91.3423 29.6278 91.1165 29.3381 90.7585C29.0483 90.3977 28.9034 89.9787 28.9034 89.5014C28.9034 89.0497 29.0355 88.6477 29.2997 88.2955C29.5639 87.9403 29.9261 87.6619 30.3864 87.4602C30.8494 87.2557 31.375 87.1534 31.9631 87.1534C32.5511 87.1534 33.0753 87.2557 33.5355 87.4602C33.9986 87.6648 34.3622 87.9446 34.6264 88.2997C34.8906 88.652 35.0241 89.0526 35.027 89.5014C35.0241 89.9815 34.8764 90.4006 34.5838 90.7585C34.2912 91.1165 33.9162 91.3423 33.4588 91.4361V91.4957C33.8082 91.5526 34.125 91.6832 34.4091 91.8878C34.696 92.0895 34.9233 92.3438 35.0909 92.6506C35.2614 92.9545 35.348 93.2884 35.3509 93.652C35.348 94.1236 35.2017 94.5455 34.9119 94.9176C34.6222 95.2898 34.2216 95.5838 33.7102 95.7997C33.2017 96.0128 32.6193 96.1193 31.9631 96.1193ZM31.9631 94.7642C32.2557 94.7642 32.5114 94.7116 32.7301 94.6065C32.9489 94.4986 33.1193 94.3509 33.2415 94.1634C33.3665 93.973 33.429 93.7543 33.429 93.5071C33.429 93.2543 33.3651 93.0312 33.2372 92.8381C33.1094 92.642 32.9361 92.4886 32.7173 92.3778C32.4986 92.2642 32.2472 92.2074 31.9631 92.2074C31.6818 92.2074 31.4304 92.2642 31.2088 92.3778C30.9872 92.4886 30.8125 92.642 30.6847 92.8381C30.5597 93.0312 30.4972 93.2543 30.4972 93.5071C30.4972 93.7543 30.5582 93.973 30.6804 94.1634C30.8026 94.3509 30.9744 94.4986 31.196 94.6065C31.4176 94.7116 31.6733 94.7642 31.9631 94.7642ZM31.9631 90.8651C32.2074 90.8651 32.4247 90.8153 32.6151 90.7159C32.8054 90.6165 32.9545 90.4787 33.0625 90.3026C33.1705 90.1264 33.2244 89.9233 33.2244 89.6932C33.2244 89.4659 33.1705 89.267 33.0625 89.0966C32.9545 88.9233 32.8068 88.7884 32.6193 88.6918C32.4318 88.5923 32.2131 88.5426 31.9631 88.5426C31.7159 88.5426 31.4972 88.5923 31.3068 88.6918C31.1165 88.7884 30.9673 88.9233 30.8594 89.0966C30.7543 89.267 30.7017 89.4659 30.7017 89.6932C30.7017 89.9233 30.7557 90.1264 30.8636 90.3026C30.9716 90.4787 31.1207 90.6165 31.3111 90.7159C31.5014 90.8153 31.7188 90.8651 31.9631 90.8651Z" fill="#25A725"/>
<rect x="56" y="64" width="12" height="24" fill="#25A725" fill-opacity="0.3"/>
<line x1="56.5" y1="40" x2="56.5" y2="96" stroke="#25A725"/>
<line x1="67.5" y1="40" x2="67.5" y2="96" stroke="#25A725"/>
<path d="M59.5043 27.2727V36H57.6591V29.0241H57.608L55.6094 30.277V28.6406L57.7699 27.2727H59.5043ZM61.5785 36V34.6705L64.685 31.794C64.9492 31.5384 65.1708 31.3082 65.3498 31.1037C65.5316 30.8991 65.6694 30.6989 65.7631 30.5028C65.8569 30.304 65.9038 30.0895 65.9038 29.8594C65.9038 29.6037 65.8455 29.3835 65.729 29.1989C65.6126 29.0114 65.4535 28.8679 65.2518 28.7685C65.0501 28.6662 64.8214 28.6151 64.5657 28.6151C64.2987 28.6151 64.0657 28.669 63.8668 28.777C63.668 28.8849 63.5146 29.0398 63.4066 29.2415C63.2987 29.4432 63.2447 29.6832 63.2447 29.9616H61.4933C61.4933 29.3906 61.6225 28.8949 61.881 28.4744C62.1396 28.054 62.5018 27.7287 62.9677 27.4986C63.4336 27.2685 63.9705 27.1534 64.5785 27.1534C65.2035 27.1534 65.7475 27.2642 66.2106 27.4858C66.6765 27.7045 67.0387 28.0085 67.2972 28.3977C67.5558 28.7869 67.685 29.233 67.685 29.7358C67.685 30.0653 67.6197 30.3906 67.489 30.7116C67.3612 31.0327 67.1325 31.3892 66.8029 31.7812C66.4734 32.1705 66.0089 32.6378 65.4094 33.1832L64.1353 34.4318V34.4915H67.8001V36H61.5785Z" fill="#25A725"/>
<rect x="139" y="64" width="12" height="24" fill="#25A725" fill-opacity="0.3"/>
<line x1="139.5" y1="40" x2="139.5" y2="96" stroke="#25A725"/>
<line x1="150.5" y1="40" x2="150.5" y2="96" stroke="#25A725"/>
<path d="M142.504 27.2727V36H140.659V29.0241H140.608L138.609 30.277V28.6406L140.77 27.2727H142.504ZM144.578 36V34.6705L147.685 31.794C147.949 31.5384 148.171 31.3082 148.35 31.1037C148.532 30.8991 148.669 30.6989 148.763 30.5028C148.857 30.304 148.904 30.0895 148.904 29.8594C148.904 29.6037 148.846 29.3835 148.729 29.1989C148.613 29.0114 148.453 28.8679 148.252 28.7685C148.05 28.6662 147.821 28.6151 147.566 28.6151C147.299 28.6151 147.066 28.669 146.867 28.777C146.668 28.8849 146.515 29.0398 146.407 29.2415C146.299 29.4432 146.245 29.6832 146.245 29.9616H144.493C144.493 29.3906 144.623 28.8949 144.881 28.4744C145.14 28.054 145.502 27.7287 145.968 27.4986C146.434 27.2685 146.971 27.1534 147.578 27.1534C148.203 27.1534 148.748 27.2642 149.211 27.4858C149.676 27.7045 150.039 28.0085 150.297 28.3977C150.556 28.7869 150.685 29.233 150.685 29.7358C150.685 30.0653 150.62 30.3906 150.489 30.7116C150.361 31.0327 150.132 31.3892 149.803 31.7812C149.473 32.1705 149.009 32.6378 148.409 33.1832L147.135 34.4318V34.4915H150.8V36H144.578Z" fill="#25A725"/>
<defs>
<clipPath id="clip0_3821_4343">
<rect width="16" height="16" fill="white" transform="translate(16)"/>
</clipPath>
<clipPath id="clip1_3821_4343">
<rect width="40" height="16" fill="white" transform="matrix(0 1 -1 0 16 56)"/>
</clipPath>
<clipPath id="clip2_3821_4343">
<rect width="95" height="16" fill="white" transform="translate(56)"/>
</clipPath>
<clipPath id="clip3_3821_4343">
<rect width="39" height="16" fill="white" transform="translate(100 40)"/>
</clipPath>
</defs>
</svg>
