<svg width="153" height="72" viewBox="0 0 153 72" fill="none" xmlns="http://www.w3.org/2000/svg">
<g filter="url(#filter0_d_3726_1728)">
<path d="M26.6248 18.7281L9 8L12.8315 28.69L17.4293 21.027L26.6248 18.7281Z" fill="#36BFFA"/>
<path d="M26.8466 19.6151L28.9688 19.0846L27.1002 17.9472L9.47538 7.21902L7.72865 6.15579L8.101 8.16648L11.9325 28.8565L12.3724 31.2322L13.6155 29.1604L18.0184 21.8222L26.8466 19.6151Z" stroke="white" stroke-width="1.82857"/>
</g>
<g filter="url(#filter1_d_3726_1728)">
<rect width="70.6286" height="26.3143" transform="translate(29.7714 33.9143)" fill="#36BFFA"/>
<path d="M42.9493 40.935H44.3584V49.2532C44.3584 49.9957 44.222 50.6263 43.9493 51.1453C43.6765 51.6642 43.2921 52.0582 42.7959 52.3271C42.2996 52.596 41.7144 52.7305 41.0402 52.7305C40.4038 52.7305 39.8375 52.615 39.3413 52.3839C38.8451 52.1491 38.455 51.8157 38.1709 51.3839C37.8868 50.9521 37.7447 50.4388 37.7447 49.8441H39.1311C39.1311 50.1737 39.2125 50.4616 39.3754 50.7078C39.5421 50.9502 39.7693 51.1396 40.0572 51.276C40.3451 51.4123 40.6728 51.4805 41.0402 51.4805C41.4455 51.4805 41.7902 51.3953 42.0743 51.2248C42.3584 51.0544 42.5743 50.8044 42.722 50.4748C42.8735 50.1415 42.9493 49.7343 42.9493 49.2532V40.935ZM50.6259 52.7532C49.838 52.7532 49.1467 52.5657 48.552 52.1907C47.9611 51.8157 47.499 51.2911 47.1656 50.6169C46.8361 49.9426 46.6713 49.1547 46.6713 48.2532C46.6713 47.3441 46.8361 46.5506 47.1656 45.8725C47.499 45.1945 47.9611 44.668 48.552 44.293C49.1467 43.918 49.838 43.7305 50.6259 43.7305C51.4137 43.7305 52.1031 43.918 52.694 44.293C53.2887 44.668 53.7509 45.1945 54.0804 45.8725C54.4137 46.5506 54.5804 47.3441 54.5804 48.2532C54.5804 49.1547 54.4137 49.9426 54.0804 50.6169C53.7509 51.2911 53.2887 51.8157 52.694 52.1907C52.1031 52.5657 51.4137 52.7532 50.6259 52.7532ZM50.6259 51.5487C51.2243 51.5487 51.7168 51.3953 52.1031 51.0885C52.4895 50.7816 52.7755 50.3782 52.9611 49.8782C53.1467 49.3782 53.2395 48.8366 53.2395 48.2532C53.2395 47.6699 53.1467 47.1263 52.9611 46.6225C52.7755 46.1188 52.4895 45.7116 52.1031 45.401C51.7168 45.0904 51.2243 44.935 50.6259 44.935C50.0274 44.935 49.535 45.0904 49.1486 45.401C48.7622 45.7116 48.4762 46.1188 48.2906 46.6225C48.105 47.1263 48.0122 47.6699 48.0122 48.2532C48.0122 48.8366 48.105 49.3782 48.2906 49.8782C48.4762 50.3782 48.7622 50.7816 49.1486 51.0885C49.535 51.3953 50.0274 51.5487 50.6259 51.5487ZM62.8891 45.7987L61.6846 46.1396C61.6088 45.9388 61.4971 45.7438 61.3493 45.5544C61.2054 45.3612 61.0084 45.2021 60.7584 45.0771C60.5084 44.9521 60.1883 44.8896 59.7982 44.8896C59.2641 44.8896 58.819 45.0127 58.463 45.2589C58.1107 45.5013 57.9346 45.81 57.9346 46.185C57.9346 46.5184 58.0558 46.7816 58.2982 46.9748C58.5406 47.168 58.9194 47.329 59.4346 47.4578L60.73 47.776C61.5103 47.9654 62.0917 48.2551 62.4743 48.6453C62.8569 49.0316 63.0482 49.5297 63.0482 50.1396C63.0482 50.6396 62.9042 51.0866 62.6164 51.4805C62.3323 51.8744 61.9346 52.185 61.4232 52.4123C60.9118 52.6396 60.3171 52.7532 59.6391 52.7532C58.7489 52.7532 58.0122 52.56 57.4289 52.1737C56.8455 51.7873 56.4762 51.2229 56.3209 50.4805L57.5936 50.1623C57.7149 50.632 57.944 50.9843 58.2811 51.2191C58.6221 51.454 59.0671 51.5714 59.6164 51.5714C60.2414 51.5714 60.7376 51.4388 61.105 51.1737C61.4762 50.9047 61.6618 50.5828 61.6618 50.2078C61.6618 49.9047 61.5558 49.651 61.3436 49.4464C61.1315 49.2381 60.8058 49.0828 60.3664 48.9805L58.9118 48.6396C58.1126 48.4502 57.5255 48.1566 57.1505 47.7589C56.7792 47.3574 56.5936 46.8555 56.5936 46.2532C56.5936 45.7608 56.7319 45.3252 57.0084 44.9464C57.2887 44.5676 57.6694 44.2703 58.1505 44.0544C58.6353 43.8385 59.1846 43.7305 59.7982 43.7305C60.6618 43.7305 61.3399 43.9199 61.8323 44.2987C62.3285 44.6775 62.6808 45.1775 62.8891 45.7987ZM68.8057 52.7532C67.9648 52.7532 67.2395 52.5676 66.6296 52.1964C66.0235 51.8214 65.5557 51.2987 65.2262 50.6282C64.9004 49.954 64.7376 49.1699 64.7376 48.276C64.7376 47.382 64.9004 46.5941 65.2262 45.9123C65.5557 45.2267 66.0141 44.6926 66.6012 44.31C67.1921 43.9237 67.8815 43.7305 68.6694 43.7305C69.1239 43.7305 69.5728 43.8063 70.016 43.9578C70.4592 44.1093 70.8626 44.3555 71.2262 44.6964C71.5898 45.0335 71.8796 45.4805 72.0955 46.0373C72.3114 46.5941 72.4194 47.2797 72.4194 48.0941V48.6623H65.6921V47.5032H71.0557C71.0557 47.0108 70.9573 46.5714 70.7603 46.185C70.5671 45.7987 70.2906 45.4938 69.9307 45.2703C69.5747 45.0468 69.1542 44.935 68.6694 44.935C68.1353 44.935 67.6732 45.0676 67.283 45.3328C66.8967 45.5941 66.5993 45.935 66.391 46.3555C66.1826 46.776 66.0785 47.2267 66.0785 47.7078V48.4805C66.0785 49.1396 66.1921 49.6983 66.4194 50.1566C66.6504 50.6112 66.9705 50.9578 67.3796 51.1964C67.7887 51.4313 68.2641 51.5487 68.8057 51.5487C69.158 51.5487 69.4762 51.4994 69.7603 51.401C70.0482 51.2987 70.2963 51.1472 70.5046 50.9464C70.7129 50.7419 70.8739 50.4881 70.9876 50.185L72.283 50.5487C72.1467 50.9881 71.9175 51.3744 71.5955 51.7078C71.2735 52.0373 70.8758 52.2949 70.4023 52.4805C69.9289 52.6623 69.3967 52.7532 68.8057 52.7532ZM74.5392 55.8441V43.8441H75.8346V45.2305H75.9937C76.0922 45.079 76.2285 44.8858 76.4028 44.651C76.5808 44.4123 76.8346 44.2002 77.1642 44.0146C77.4975 43.8252 77.9482 43.7305 78.5164 43.7305C79.2513 43.7305 79.899 43.9142 80.4596 44.2816C81.0202 44.6491 81.4577 45.1699 81.7721 45.8441C82.0865 46.5184 82.2437 47.3138 82.2437 48.2305C82.2437 49.1547 82.0865 49.9559 81.7721 50.6339C81.4577 51.3082 81.0221 51.8309 80.4653 52.2021C79.9085 52.5695 79.2664 52.7532 78.5392 52.7532C77.9785 52.7532 77.5297 52.6604 77.1926 52.4748C76.8554 52.2854 76.596 52.0714 76.4142 51.8328C76.2323 51.5904 76.0922 51.3896 75.9937 51.2305H75.8801V55.8441H74.5392ZM75.8573 48.2078C75.8573 48.8669 75.9539 49.4483 76.1471 49.9521C76.3403 50.4521 76.6225 50.8441 76.9937 51.1282C77.3649 51.4085 77.8195 51.5487 78.3573 51.5487C78.9179 51.5487 79.3857 51.401 79.7607 51.1055C80.1395 50.8063 80.4236 50.4047 80.613 49.901C80.8062 49.3934 80.9028 48.829 80.9028 48.2078C80.9028 47.5941 80.8081 47.0411 80.6187 46.5487C80.4331 46.0525 80.1509 45.6604 79.7721 45.3725C79.3971 45.0809 78.9255 44.935 78.3573 44.935C77.8119 44.935 77.3535 45.0733 76.9823 45.3498C76.6111 45.6225 76.3308 46.0051 76.1414 46.4975C75.952 46.9862 75.8573 47.5563 75.8573 48.2078ZM85.7101 47.3214V52.5714H84.3692V40.935H85.7101V45.2078H85.8237C86.0282 44.757 86.3351 44.3991 86.7442 44.1339C87.157 43.865 87.7063 43.7305 88.3919 43.7305C88.9866 43.7305 89.5074 43.8498 89.9544 44.0885C90.4014 44.3233 90.7479 44.685 90.9942 45.1737C91.2442 45.6585 91.3692 46.276 91.3692 47.026V52.5714H90.0282V47.1169C90.0282 46.4237 89.8483 45.8877 89.4885 45.5089C89.1324 45.1263 88.6381 44.935 88.0055 44.935C87.5661 44.935 87.1722 45.0279 86.8237 45.2135C86.479 45.3991 86.2063 45.6699 86.0055 46.026C85.8086 46.382 85.7101 46.8138 85.7101 47.3214Z" fill="white"/>
</g>
<defs>
<filter id="filter0_d_3726_1728" x="0.971561" y="0.654442" width="35.827" height="40.4342" filterUnits="userSpaceOnUse" color-interpolation-filters="sRGB">
<feFlood flood-opacity="0" result="BackgroundImageFix"/>
<feColorMatrix in="SourceAlpha" type="matrix" values="0 0 0 0 0 0 0 0 0 0 0 0 0 0 0 0 0 0 127 0" result="hardAlpha"/>
<feOffset dy="1.82857"/>
<feGaussianBlur stdDeviation="2.74286"/>
<feColorMatrix type="matrix" values="0 0 0 0 0 0 0 0 0 0 0 0 0 0 0 0 0 0 0.4 0"/>
<feBlend mode="normal" in2="BackgroundImageFix" result="effect1_dropShadow_3726_1728"/>
<feBlend mode="normal" in="SourceGraphic" in2="effect1_dropShadow_3726_1728" result="shape"/>
</filter>
<filter id="filter1_d_3726_1728" x="22.4571" y="30.2571" width="85.2571" height="40.9429" filterUnits="userSpaceOnUse" color-interpolation-filters="sRGB">
<feFlood flood-opacity="0" result="BackgroundImageFix"/>
<feColorMatrix in="SourceAlpha" type="matrix" values="0 0 0 0 0 0 0 0 0 0 0 0 0 0 0 0 0 0 127 0" result="hardAlpha"/>
<feOffset dy="3.65714"/>
<feGaussianBlur stdDeviation="3.65714"/>
<feColorMatrix type="matrix" values="0 0 0 0 0 0 0 0 0 0 0 0 0 0 0 0 0 0 0.12 0"/>
<feBlend mode="normal" in2="BackgroundImageFix" result="effect1_dropShadow_3726_1728"/>
<feBlend mode="normal" in="SourceGraphic" in2="effect1_dropShadow_3726_1728" result="shape"/>
</filter>
</defs>
</svg>
