<svg width="175" height="36" viewBox="0 0 175 36" fill="none" xmlns="http://www.w3.org/2000/svg">
<g id="Clip path group">
<mask id="mask0_3821_4920" style="mask-type:luminance" maskUnits="userSpaceOnUse" x="0" y="0" width="175" height="36">
<g id="clip8_2153_6355">
<path id="Vector" d="M157 0H18C8.05887 0 0 8.05887 0 18C0 27.9411 8.05887 36 18 36H157C166.941 36 175 27.9411 175 18C175 8.05887 166.941 0 157 0Z" fill="white"/>
</g>
</mask>
<g mask="url(#mask0_3821_4920)">
<g id="Group">
<path id="Vector_2" d="M157 0H18C8.05887 0 0 8.05887 0 18C0 27.9411 8.05887 36 18 36H157C166.941 36 175 27.9411 175 18C175 8.05887 166.941 0 157 0Z" fill="white"/>
<g id="Group_2" opacity="0.38">
<path id="Vector_3" d="M20 28C25.523 28 30 23.5228 30 18C30 12.4772 25.523 8 20 8C14.477 8 10 12.4772 10 18C10 23.5228 14.477 28 20 28Z" fill="#333333"/>
<path id="Vector_4" d="M44.281 21.4453V23H38.57V21.4453H44.281ZM39.117 11.625V23H37.156V11.625H39.117ZM50.375 21.3047V17.2734C50.375 16.9714 50.32 16.7109 50.211 16.4922C50.102 16.2734 49.935 16.1042 49.711 15.9844C49.492 15.8646 49.216 15.8047 48.883 15.8047C48.576 15.8047 48.31 15.8568 48.086 15.9609C47.862 16.0651 47.688 16.2057 47.562 16.3828C47.438 16.5599 47.375 16.7604 47.375 16.9844H45.5C45.5 16.651 45.581 16.3281 45.742 16.0156C45.904 15.7031 46.138 15.4245 46.445 15.1797C46.753 14.9349 47.12 14.7422 47.547 14.6016C47.974 14.4609 48.453 14.3906 48.984 14.3906C49.62 14.3906 50.182 14.4974 50.672 14.7109C51.167 14.9245 51.555 15.2474 51.836 15.6797C52.122 16.1068 52.266 16.6432 52.266 17.2891V21.0469C52.266 21.4323 52.292 21.7786 52.344 22.0859C52.401 22.388 52.482 22.651 52.586 22.875V23H50.656C50.568 22.7969 50.497 22.5391 50.445 22.2266C50.398 21.9089 50.375 21.6016 50.375 21.3047ZM50.648 17.8594L50.664 19.0234H49.312C48.964 19.0234 48.656 19.0573 48.391 19.125C48.125 19.1875 47.904 19.2812 47.727 19.4062C47.549 19.5312 47.417 19.6823 47.328 19.8594C47.24 20.0365 47.195 20.237 47.195 20.4609C47.195 20.6849 47.247 20.8906 47.352 21.0781C47.456 21.2604 47.607 21.4036 47.805 21.5078C48.008 21.612 48.253 21.6641 48.539 21.6641C48.924 21.6641 49.26 21.5859 49.547 21.4297C49.839 21.2682 50.068 21.0729 50.234 20.8438C50.401 20.6094 50.49 20.388 50.5 20.1797L51.109 21.0156C51.047 21.2292 50.94 21.4583 50.789 21.7031C50.638 21.9479 50.44 22.1823 50.195 22.4062C49.956 22.625 49.667 22.8047 49.328 22.9453C48.995 23.0859 48.609 23.1562 48.172 23.1562C47.62 23.1562 47.128 23.0469 46.695 22.8281C46.263 22.6042 45.924 22.3047 45.68 21.9297C45.435 21.5495 45.312 21.1198 45.312 20.6406C45.312 20.1927 45.396 19.7969 45.562 19.4531C45.734 19.1042 45.984 18.8125 46.312 18.5781C46.646 18.3438 47.052 18.1667 47.531 18.0469C48.01 17.9219 48.557 17.8594 49.172 17.8594H50.648ZM54.242 11H56.125V21.1953L55.945 23H54.242V11ZM61.64 18.6953V18.8594C61.64 19.4844 61.57 20.0599 61.43 20.5859C61.29 21.1068 61.09 21.5599 60.8 21.9453C60.53 22.3307 60.18 22.6302 59.773 22.8438C59.367 23.0521 58.896 23.1562 58.359 23.1562C57.833 23.1562 57.375 23.0573 56.984 22.8594C56.594 22.6615 56.266 22.3802 56 22.0156C55.74 21.651 55.529 21.2161 55.367 20.7109C55.206 20.2057 55.091 19.6484 55.023 19.0391V18.5156C55.091 17.901 55.206 17.3438 55.367 16.8438C55.529 16.3385 55.74 15.9036 56 15.5391C56.266 15.1693 56.591 14.8854 56.977 14.6875C57.367 14.4896 57.823 14.3906 58.344 14.3906C58.885 14.3906 59.362 14.4948 59.773 14.7031C60.19 14.9115 60.54 15.2083 60.81 15.5938C61.09 15.974 61.29 16.4271 61.43 16.9531C61.57 17.4792 61.64 18.0599 61.64 18.6953ZM59.758 18.8594V18.6953C59.758 18.3151 59.727 17.9583 59.664 17.625C59.602 17.2865 59.497 16.9896 59.352 16.7344C59.211 16.4792 59.018 16.2786 58.773 16.1328C58.534 15.9818 58.234 15.9062 57.875 15.9062C57.542 15.9062 57.255 15.9635 57.016 16.0781C56.776 16.1927 56.576 16.349 56.414 16.5469C56.253 16.7448 56.125 16.974 56.031 17.2344C55.943 17.4948 55.883 17.776 55.852 18.0781V19.4922C55.898 19.8828 55.997 20.2422 56.148 20.5703C56.305 20.8932 56.523 21.1536 56.805 21.3516C57.086 21.5443 57.448 21.6406 57.891 21.6406C58.24 21.6406 58.534 21.5703 58.773 21.4297C59.013 21.2891 59.203 21.0938 59.344 20.8438C59.49 20.5885 59.594 20.2917 59.656 19.9531C59.724 19.6146 59.758 19.25 59.758 18.8594ZM66.96 23.1562C66.34 23.1562 65.77 23.0547 65.27 22.8516C64.77 22.6432 64.34 22.3542 63.98 21.9844C63.64 21.6146 63.37 21.1797 63.18 20.6797C62.99 20.1797 62.9 19.6406 62.9 19.0625V18.75C62.9 18.0885 62.99 17.4896 63.19 16.9531C63.38 16.4167 63.65 15.9583 63.99 15.5781C64.34 15.1927 64.74 14.8984 65.21 14.6953C65.68 14.4922 66.19 14.3906 66.73 14.3906C67.34 14.3906 67.87 14.4922 68.32 14.6953C68.77 14.8984 69.15 15.1849 69.45 15.5547C69.75 15.9193 69.97 16.3542 70.12 16.8594C70.27 17.3646 70.34 17.9219 70.34 18.5312V19.3359H63.81V17.9844H68.48V17.8359C68.47 17.4974 68.41 17.1797 68.28 16.8828C68.16 16.5859 67.98 16.3464 67.73 16.1641C67.48 15.9818 67.14 15.8906 66.73 15.8906C66.41 15.8906 66.14 15.9583 65.89 16.0938C65.65 16.224 65.45 16.4141 65.29 16.6641C65.13 16.9141 65 17.2161 64.91 17.5703C64.83 17.9193 64.79 18.3125 64.79 18.75V19.0625C64.79 19.4323 64.84 19.776 64.94 20.0938C65.04 20.4062 65.19 20.6797 65.39 20.9141C65.59 21.1484 65.83 21.3333 66.11 21.4688C66.39 21.599 66.71 21.6641 67.07 21.6641C67.52 21.6641 67.93 21.5729 68.28 21.3906C68.64 21.2083 68.94 20.9505 69.2 20.6172L70.2 21.5781C70.01 21.8438 69.78 22.099 69.48 22.3438C69.19 22.5833 68.84 22.7786 68.41 22.9297C68 23.0807 67.51 23.1562 66.96 23.1562ZM73.83 11V23H71.94V11H73.83ZM83.75 14.5469V15.9219H78.98V14.5469H83.75ZM80.36 12.4766H82.24V20.6641C82.24 20.9245 82.28 21.125 82.35 21.2656C82.43 21.401 82.54 21.4922 82.67 21.5391C82.81 21.5859 82.97 21.6094 83.15 21.6094C83.28 21.6094 83.4 21.6016 83.52 21.5859C83.64 21.5703 83.74 21.5547 83.81 21.5391L83.82 22.9766C83.66 23.0234 83.48 23.0651 83.27 23.1016C83.07 23.138 82.84 23.1562 82.57 23.1562C82.14 23.1562 81.76 23.0807 81.42 22.9297C81.09 22.7734 80.83 22.5208 80.64 22.1719C80.45 21.8229 80.36 21.3594 80.36 20.7812V12.4766ZM88.9301 23.1562C88.3001 23.1562 87.74 23.0547 87.23 22.8516C86.73 22.6432 86.31 22.3542 85.95 21.9844C85.6 21.6146 85.34 21.1797 85.15 20.6797C84.96 20.1797 84.87 19.6406 84.87 19.0625V18.75C84.87 18.0885 84.96 17.4896 85.16 16.9531C85.35 16.4167 85.62 15.9583 85.96 15.5781C86.3 15.1927 86.7101 14.8984 87.1801 14.6953C87.6501 14.4922 88.16 14.3906 88.7 14.3906C89.31 14.3906 89.84 14.4922 90.29 14.6953C90.74 14.8984 91.12 15.1849 91.41 15.5547C91.72 15.9193 91.94 16.3542 92.09 16.8594C92.24 17.3646 92.3101 17.9219 92.3101 18.5312V19.3359H85.78V17.9844H90.45V17.8359C90.44 17.4974 90.38 17.1797 90.25 16.8828C90.13 16.5859 89.95 16.3464 89.7 16.1641C89.45 15.9818 89.11 15.8906 88.7 15.8906C88.38 15.8906 88.1 15.9583 87.86 16.0938C87.62 16.224 87.42 16.4141 87.26 16.6641C87.1 16.9141 86.97 17.2161 86.88 17.5703C86.8 17.9193 86.76 18.3125 86.76 18.75V19.0625C86.76 19.4323 86.81 19.776 86.91 20.0938C87.01 20.4062 87.16 20.6797 87.36 20.9141C87.56 21.1484 87.8 21.3333 88.08 21.4688C88.36 21.599 88.68 21.6641 89.04 21.6641C89.49 21.6641 89.9 21.5729 90.25 21.3906C90.6 21.2083 90.91 20.9505 91.17 20.6172L92.16 21.5781C91.98 21.8438 91.74 22.099 91.45 22.3438C91.16 22.5833 90.8 22.7786 90.38 22.9297C89.97 23.0807 89.4801 23.1562 88.9301 23.1562ZM95.22 14.5469L96.83 17.3516L98.47 14.5469H100.54L97.98 18.6953L100.64 23H98.5699L96.85 20.0781L95.13 23H93.05L95.71 18.6953L93.16 14.5469H95.22ZM105.7 14.5469V15.9219H100.94V14.5469H105.7ZM102.31 12.4766H104.2V20.6641C104.2 20.9245 104.23 21.125 104.3 21.2656C104.38 21.401 104.49 21.4922 104.62 21.5391C104.76 21.5859 104.92 21.6094 105.1 21.6094C105.23 21.6094 105.36 21.6016 105.48 21.5859C105.6 21.5703 105.69 21.5547 105.77 21.5391V22.9766C105.62 23.0234 105.43 23.0651 105.23 23.1016C105.02 23.138 104.79 23.1562 104.52 23.1562C104.09 23.1562 103.71 23.0807 103.38 22.9297C103.04 22.7734 102.78 22.5208 102.59 22.1719C102.41 21.8229 102.31 21.3594 102.31 20.7812V12.4766Z" fill="#333333"/>
<path id="Vector_5" d="M119 24.6673C122.68 24.6673 125.67 21.6826 125.67 18.0007C125.67 14.3188 122.68 11.334 119 11.334C115.32 11.334 112.33 14.3188 112.33 18.0007C112.33 21.6826 115.32 24.6673 119 24.6673Z" fill="#333333"/>
<path id="Vector_6" d="M139 24.6673C142.68 24.6673 145.67 21.6826 145.67 18.0007C145.67 14.3188 142.68 11.334 139 11.334C135.32 11.334 132.33 14.3188 132.33 18.0007C132.33 21.6826 135.32 24.6673 139 24.6673Z" fill="#333333"/>
<path id="Vector_7" d="M159 24.6673C162.68 24.6673 165.67 21.6826 165.67 18.0007C165.67 14.3188 162.68 11.334 159 11.334C155.32 11.334 152.33 14.3188 152.33 18.0007C152.33 21.6826 155.32 24.6673 159 24.6673Z" fill="#333333"/>
</g>
</g>
</g>
</g>
</svg>
