<svg width="140" height="72" viewBox="0 0 140 72" fill="none" xmlns="http://www.w3.org/2000/svg">
<g filter="url(#filter0_d_3726_1732)">
<path d="M26.6248 18.7281L9 8L12.8315 28.69L17.4293 21.027L26.6248 18.7281Z" fill="#25A725"/>
<path d="M26.8466 19.6151L28.9688 19.0846L27.1002 17.9472L9.47538 7.21902L7.72865 6.15579L8.101 8.16648L11.9325 28.8565L12.3724 31.2322L13.6155 29.1604L18.0184 21.8222L26.8466 19.6151Z" stroke="white" stroke-width="1.82857"/>
</g>
<g filter="url(#filter1_d_3726_1732)">
<rect width="51.6286" height="26.3143" transform="translate(29.7714 33.9143)" fill="#25A725"/>
<path d="M38.4947 52.5715V40.9351H39.9038V51.3215H45.3129V52.5715H38.4947ZM49.9611 52.776C49.4081 52.776 48.9062 52.6719 48.4554 52.4635C48.0046 52.2514 47.6467 51.9465 47.3815 51.5487C47.1164 51.1472 46.9838 50.6624 46.9838 50.0942C46.9838 49.5942 47.0823 49.1889 47.2793 48.8783C47.4762 48.5639 47.7395 48.3177 48.069 48.1397C48.3986 47.9616 48.7622 47.829 49.16 47.7419C49.5615 47.651 49.9649 47.579 50.3702 47.526C50.9005 47.4578 51.3304 47.4067 51.66 47.3726C51.9933 47.3347 52.2357 47.2722 52.3872 47.1851C52.5425 47.098 52.6202 46.9465 52.6202 46.7306V46.6851C52.6202 46.1245 52.4668 45.6889 52.16 45.3783C51.8569 45.0677 51.3967 44.9124 50.7793 44.9124C50.1391 44.9124 49.6372 45.0525 49.2736 45.3328C48.91 45.6131 48.6543 45.9124 48.5065 46.2306L47.2338 45.776C47.4611 45.2457 47.7641 44.8328 48.1429 44.5374C48.5255 44.2381 48.9421 44.0298 49.3929 43.9124C49.8475 43.7912 50.2944 43.7306 50.7338 43.7306C51.0141 43.7306 51.3361 43.7647 51.6997 43.8328C52.0671 43.8972 52.4213 44.0317 52.7622 44.2362C53.1069 44.4408 53.3929 44.7495 53.6202 45.1624C53.8475 45.5753 53.9611 46.1283 53.9611 46.8215V52.5715H52.6202V51.3897H52.552C52.4611 51.579 52.3096 51.7817 52.0975 51.9976C51.8853 52.2135 51.6031 52.3972 51.2509 52.5487C50.8986 52.7003 50.4687 52.776 49.9611 52.776ZM50.1656 51.5715C50.6959 51.5715 51.1429 51.4673 51.5065 51.259C51.874 51.0506 52.1505 50.7817 52.3361 50.4522C52.5255 50.1226 52.6202 49.776 52.6202 49.4124V48.1851C52.5634 48.2533 52.4384 48.3158 52.2452 48.3726C52.0558 48.4256 51.8361 48.473 51.5861 48.5147C51.3399 48.5525 51.0993 48.5866 50.8645 48.6169C50.6334 48.6434 50.4459 48.6662 50.302 48.6851C49.9535 48.7306 49.6278 48.8044 49.3247 48.9067C49.0255 49.0052 48.7831 49.1548 48.5975 49.3556C48.4156 49.5525 48.3247 49.8215 48.3247 50.1624C48.3247 50.6283 48.4971 50.9806 48.8418 51.2192C49.1903 51.454 49.6315 51.5715 50.1656 51.5715ZM57.8294 47.3215V52.5715H56.4885V43.8442H57.784V45.2078H57.8976C58.1022 44.7647 58.4128 44.4086 58.8294 44.1397C59.2461 43.8669 59.784 43.7306 60.4431 43.7306C61.034 43.7306 61.551 43.8518 61.9942 44.0942C62.4374 44.3328 62.7821 44.6965 63.0283 45.1851C63.2745 45.67 63.3976 46.2836 63.3976 47.026V52.5715H62.0567V47.1169C62.0567 46.4313 61.8787 45.8972 61.5226 45.5147C61.1666 45.1283 60.6779 44.9351 60.0567 44.9351C59.6287 44.9351 59.2461 45.0279 58.909 45.2135C58.5757 45.3991 58.3124 45.67 58.1192 46.026C57.926 46.3821 57.8294 46.8139 57.8294 47.3215ZM68.4961 52.776C67.9431 52.776 67.4412 52.6719 66.9904 52.4635C66.5396 52.2514 66.1817 51.9465 65.9165 51.5487C65.6514 51.1472 65.5188 50.6624 65.5188 50.0942C65.5188 49.5942 65.6173 49.1889 65.8143 48.8783C66.0112 48.5639 66.2745 48.3177 66.604 48.1397C66.9336 47.9616 67.2972 47.829 67.695 47.7419C68.0965 47.651 68.4999 47.579 68.9052 47.526C69.4355 47.4578 69.8654 47.4067 70.195 47.3726C70.5283 47.3347 70.7707 47.2722 70.9222 47.1851C71.0775 47.098 71.1552 46.9465 71.1552 46.7306V46.6851C71.1552 46.1245 71.0018 45.6889 70.695 45.3783C70.3919 45.0677 69.9317 44.9124 69.3143 44.9124C68.6741 44.9124 68.1722 45.0525 67.8086 45.3328C67.445 45.6131 67.1893 45.9124 67.0415 46.2306L65.7688 45.776C65.9961 45.2457 66.2991 44.8328 66.6779 44.5374C67.0605 44.2381 67.4771 44.0298 67.9279 43.9124C68.3825 43.7912 68.8294 43.7306 69.2688 43.7306C69.5491 43.7306 69.8711 43.7647 70.2347 43.8328C70.6021 43.8972 70.9563 44.0317 71.2972 44.2362C71.6419 44.4408 71.9279 44.7495 72.1552 45.1624C72.3825 45.5753 72.4961 46.1283 72.4961 46.8215V52.5715H71.1552V51.3897H71.087C70.9961 51.579 70.8446 51.7817 70.6325 51.9976C70.4203 52.2135 70.1381 52.3972 69.7859 52.5487C69.4336 52.7003 69.0037 52.776 68.4961 52.776ZM68.7006 51.5715C69.2309 51.5715 69.6779 51.4673 70.0415 51.259C70.409 51.0506 70.6855 50.7817 70.8711 50.4522C71.0605 50.1226 71.1552 49.776 71.1552 49.4124V48.1851C71.0984 48.2533 70.9734 48.3158 70.7802 48.3726C70.5908 48.4256 70.3711 48.473 70.1211 48.5147C69.8749 48.5525 69.6343 48.5866 69.3995 48.6169C69.1684 48.6434 68.9809 48.6662 68.837 48.6851C68.4885 48.7306 68.1628 48.8044 67.8597 48.9067C67.5605 49.0052 67.3181 49.1548 67.1325 49.3556C66.9506 49.5525 66.8597 49.8215 66.8597 50.1624C66.8597 50.6283 67.0321 50.9806 67.3768 51.2192C67.7253 51.454 68.1665 51.5715 68.7006 51.5715Z" fill="white"/>
</g>
<defs>
<filter id="filter0_d_3726_1732" x="0.971561" y="0.654442" width="35.827" height="40.4341" filterUnits="userSpaceOnUse" color-interpolation-filters="sRGB">
<feFlood flood-opacity="0" result="BackgroundImageFix"/>
<feColorMatrix in="SourceAlpha" type="matrix" values="0 0 0 0 0 0 0 0 0 0 0 0 0 0 0 0 0 0 127 0" result="hardAlpha"/>
<feOffset dy="1.82857"/>
<feGaussianBlur stdDeviation="2.74286"/>
<feColorMatrix type="matrix" values="0 0 0 0 0 0 0 0 0 0 0 0 0 0 0 0 0 0 0.4 0"/>
<feBlend mode="normal" in2="BackgroundImageFix" result="effect1_dropShadow_3726_1732"/>
<feBlend mode="normal" in="SourceGraphic" in2="effect1_dropShadow_3726_1732" result="shape"/>
</filter>
<filter id="filter1_d_3726_1732" x="22.4571" y="30.2572" width="66.2572" height="40.9428" filterUnits="userSpaceOnUse" color-interpolation-filters="sRGB">
<feFlood flood-opacity="0" result="BackgroundImageFix"/>
<feColorMatrix in="SourceAlpha" type="matrix" values="0 0 0 0 0 0 0 0 0 0 0 0 0 0 0 0 0 0 127 0" result="hardAlpha"/>
<feOffset dy="3.65714"/>
<feGaussianBlur stdDeviation="3.65714"/>
<feColorMatrix type="matrix" values="0 0 0 0 0 0 0 0 0 0 0 0 0 0 0 0 0 0 0.12 0"/>
<feBlend mode="normal" in2="BackgroundImageFix" result="effect1_dropShadow_3726_1732"/>
<feBlend mode="normal" in="SourceGraphic" in2="effect1_dropShadow_3726_1732" result="shape"/>
</filter>
</defs>
</svg>
