<svg width="120" height="48" viewBox="0 0 120 48" fill="none" xmlns="http://www.w3.org/2000/svg">
<rect width="120" height="48" rx="4" fill="#F05252"/>
<path d="M33.9999 35.6673C40.4432 35.6673 45.6666 30.444 45.6666 24.0007C45.6666 17.5573 40.4432 12.334 33.9999 12.334C27.5566 12.334 22.3333 17.5573 22.3333 24.0007C22.3333 30.444 27.5566 35.6673 33.9999 35.6673Z" fill="white"/>
<path d="M62.8643 17.2031V30H60.2363V17.2031H62.8643ZM66.8018 17.2031V19.2686H56.3604V17.2031H66.8018ZM76.8916 27.9434V30H70.0801V27.9434H76.8916ZM70.9414 17.2031V30H68.3047V17.2031H70.9414ZM76.0039 22.415V24.4189H70.0801V22.415H76.0039ZM76.8828 17.2031V19.2686H70.0801V17.2031H76.8828ZM80.6006 17.2031L83.0088 21.668L85.417 17.2031H88.4316L84.7139 23.5488L88.5283 30H85.4873L83.0088 25.4473L80.5303 30H77.4717L81.2949 23.5488L77.5684 17.2031H80.6006ZM95.5771 17.2031V30H92.9492V17.2031H95.5771ZM99.5146 17.2031V19.2686H89.0732V17.2031H99.5146Z" fill="white"/>
</svg>
