<svg width="129" height="72" viewBox="0 0 129 72" fill="none" xmlns="http://www.w3.org/2000/svg">
<g filter="url(#filter0_d_3726_1736)">
<path d="M26.6248 18.7281L9 8L12.8315 28.69L17.4293 21.027L26.6248 18.7281Z" fill="#AE7BF4"/>
<path d="M26.8466 19.6151L28.9688 19.0846L27.1002 17.9472L9.47538 7.21902L7.72865 6.15579L8.101 8.16648L11.9325 28.8565L12.3724 31.2322L13.6155 29.1604L18.0184 21.8222L26.8466 19.6151Z" stroke="white" stroke-width="1.82857"/>
</g>
<g filter="url(#filter1_d_3726_1736)">
<rect width="56.6286" height="26.3143" transform="translate(29.7715 33.9143)" fill="#AE7BF4"/>
<path d="M48.313 46.7532C48.313 47.9805 48.0914 49.0411 47.6482 49.935C47.205 50.829 46.5971 51.5184 45.8243 52.0032C45.0516 52.4881 44.169 52.7305 43.1766 52.7305C42.1842 52.7305 41.3016 52.4881 40.5289 52.0032C39.7561 51.5184 39.1482 50.829 38.705 49.935C38.2618 49.0411 38.0402 47.9805 38.0402 46.7532C38.0402 45.526 38.2618 44.4654 38.705 43.5714C39.1482 42.6775 39.7561 41.9881 40.5289 41.5032C41.3016 41.0184 42.1842 40.776 43.1766 40.776C44.169 40.776 45.0516 41.0184 45.8243 41.5032C46.5971 41.9881 47.205 42.6775 47.6482 43.5714C48.0914 44.4654 48.313 45.526 48.313 46.7532ZM46.9493 46.7532C46.9493 45.7457 46.7808 44.8953 46.4436 44.2021C46.1103 43.5089 45.6577 42.9843 45.0857 42.6282C44.5175 42.2722 43.8811 42.0941 43.1766 42.0941C42.4721 42.0941 41.8338 42.2722 41.2618 42.6282C40.6936 42.9843 40.241 43.5089 39.9039 44.2021C39.5705 44.8953 39.4039 45.7457 39.4039 46.7532C39.4039 47.7608 39.5705 48.6112 39.9039 49.3044C40.241 49.9975 40.6936 50.5222 41.2618 50.8782C41.8338 51.2343 42.4721 51.4123 43.1766 51.4123C43.8811 51.4123 44.5175 51.2343 45.0857 50.8782C45.6577 50.5222 46.1103 49.9975 46.4436 49.3044C46.7808 48.6112 46.9493 47.7608 46.9493 46.7532ZM51.9214 40.935V52.5714H50.5805V40.935H51.9214ZM54.4573 52.5714V43.8441H55.7983V52.5714H54.4573ZM55.1392 42.3896C54.8778 42.3896 54.6524 42.3006 54.463 42.1225C54.2774 41.9445 54.1846 41.7305 54.1846 41.4805C54.1846 41.2305 54.2774 41.0165 54.463 40.8385C54.6524 40.6604 54.8778 40.5714 55.1392 40.5714C55.4005 40.5714 55.624 40.6604 55.8096 40.8385C55.999 41.0165 56.0937 41.2305 56.0937 41.4805C56.0937 41.7305 55.999 41.9445 55.8096 42.1225C55.624 42.3006 55.4005 42.3896 55.1392 42.3896ZM65.4706 43.8441L62.2433 52.5714H60.8797L57.6524 43.8441H59.1069L61.516 50.7987H61.6069L64.016 43.8441H65.4706ZM67.3205 52.5714V43.8441H68.6614V52.5714H67.3205ZM68.0023 42.3896C67.7409 42.3896 67.5155 42.3006 67.3261 42.1225C67.1405 41.9445 67.0477 41.7305 67.0477 41.4805C67.0477 41.2305 67.1405 41.0165 67.3261 40.8385C67.5155 40.6604 67.7409 40.5714 68.0023 40.5714C68.2636 40.5714 68.4871 40.6604 68.6727 40.8385C68.8621 41.0165 68.9568 41.2305 68.9568 41.4805C68.9568 41.7305 68.8621 41.9445 68.6727 42.1225C68.4871 42.3006 68.2636 42.3896 68.0023 42.3896ZM73.7655 52.776C73.2125 52.776 72.7106 52.6718 72.2598 52.4635C71.8091 52.2513 71.4511 51.9464 71.186 51.5487C70.9208 51.1472 70.7883 50.6623 70.7883 50.0941C70.7883 49.5941 70.8867 49.1888 71.0837 48.8782C71.2807 48.5638 71.5439 48.3176 71.8735 48.1396C72.203 47.9616 72.5667 47.829 72.9644 47.7419C73.3659 47.651 73.7693 47.579 74.1746 47.526C74.7049 47.4578 75.1348 47.4066 75.4644 47.3725C75.7977 47.3347 76.0401 47.2722 76.1917 47.185C76.347 47.0979 76.4246 46.9464 76.4246 46.7305V46.685C76.4246 46.1244 76.2712 45.6888 75.9644 45.3782C75.6614 45.0676 75.2011 44.9123 74.5837 44.9123C73.9436 44.9123 73.4417 45.0525 73.078 45.3328C72.7144 45.6131 72.4587 45.9123 72.311 46.2305L71.0383 45.776C71.2655 45.2457 71.5686 44.8328 71.9473 44.5373C72.3299 44.2381 72.7466 44.0297 73.1973 43.9123C73.6519 43.7911 74.0989 43.7305 74.5383 43.7305C74.8186 43.7305 75.1405 43.7646 75.5042 43.8328C75.8716 43.8972 76.2258 44.0316 76.5667 44.2362C76.9114 44.4407 77.1973 44.7494 77.4246 45.1623C77.6519 45.5752 77.7655 46.1282 77.7655 46.8214V52.5714H76.4246V51.3896H76.3564C76.2655 51.579 76.114 51.7816 75.9019 51.9975C75.6898 52.2135 75.4076 52.3972 75.0553 52.5487C74.703 52.7002 74.2731 52.776 73.7655 52.776ZM73.9701 51.5714C74.5004 51.5714 74.9473 51.4672 75.311 51.2589C75.6784 51.0506 75.9549 50.7816 76.1405 50.4521C76.3299 50.1225 76.4246 49.776 76.4246 49.4123V48.185C76.3678 48.2532 76.2428 48.3157 76.0496 48.3725C75.8602 48.4256 75.6405 48.4729 75.3905 48.5146C75.1443 48.5525 74.9038 48.5866 74.6689 48.6169C74.4379 48.6434 74.2504 48.6661 74.1064 48.685C73.7579 48.7305 73.4322 48.8044 73.1292 48.9066C72.8299 49.0051 72.5875 49.1547 72.4019 49.3555C72.2201 49.5525 72.1292 49.8214 72.1292 50.1623C72.1292 50.6282 72.3015 50.9805 72.6462 51.2191C72.9947 51.454 73.436 51.5714 73.9701 51.5714Z" fill="white"/>
</g>
<defs>
<filter id="filter0_d_3726_1736" x="0.971561" y="0.654442" width="35.8269" height="40.4342" filterUnits="userSpaceOnUse" color-interpolation-filters="sRGB">
<feFlood flood-opacity="0" result="BackgroundImageFix"/>
<feColorMatrix in="SourceAlpha" type="matrix" values="0 0 0 0 0 0 0 0 0 0 0 0 0 0 0 0 0 0 127 0" result="hardAlpha"/>
<feOffset dy="1.82857"/>
<feGaussianBlur stdDeviation="2.74286"/>
<feColorMatrix type="matrix" values="0 0 0 0 0 0 0 0 0 0 0 0 0 0 0 0 0 0 0.4 0"/>
<feBlend mode="normal" in2="BackgroundImageFix" result="effect1_dropShadow_3726_1736"/>
<feBlend mode="normal" in="SourceGraphic" in2="effect1_dropShadow_3726_1736" result="shape"/>
</filter>
<filter id="filter1_d_3726_1736" x="22.4572" y="30.2571" width="71.2571" height="40.9429" filterUnits="userSpaceOnUse" color-interpolation-filters="sRGB">
<feFlood flood-opacity="0" result="BackgroundImageFix"/>
<feColorMatrix in="SourceAlpha" type="matrix" values="0 0 0 0 0 0 0 0 0 0 0 0 0 0 0 0 0 0 127 0" result="hardAlpha"/>
<feOffset dy="3.65714"/>
<feGaussianBlur stdDeviation="3.65714"/>
<feColorMatrix type="matrix" values="0 0 0 0 0 0 0 0 0 0 0 0 0 0 0 0 0 0 0.12 0"/>
<feBlend mode="normal" in2="BackgroundImageFix" result="effect1_dropShadow_3726_1736"/>
<feBlend mode="normal" in="SourceGraphic" in2="effect1_dropShadow_3726_1736" result="shape"/>
</filter>
</defs>
</svg>
