<svg width="456" height="72" viewBox="0 0 456 72" fill="none" xmlns="http://www.w3.org/2000/svg">
<path d="M36 0C29.415 0 23.01 1.8 17.4 5.19C16.695 4.755 15.87 4.5 15 4.5C12.525 4.5 10.5 6.525 10.5 9C10.5 9.48 10.575 9.96 10.74 10.395C3.9 17.115 0 26.4 0 36C0 55.845 16.155 72 36 72C40.68 72 45.225 71.115 49.5 69.345C50.295 70.065 51.36 70.5 52.5 70.5C54.975 70.5 57 68.475 57 66C57 65.745 56.985 65.505 56.925 65.265C66.39 58.5 72 47.64 72 36C72 16.155 55.845 0 36 0ZM55.455 62.625C54.66 61.92 53.625 61.5 52.5 61.5C50.025 61.5 48 63.525 48 66C48 66.24 48.015 66.48 48.06 66.705C44.235 68.235 40.185 69 36 69C17.805 69 3 54.195 3 36C3 27.345 6.48 18.945 12.57 12.795C13.275 13.23 14.115 13.5 15 13.5C17.475 13.5 19.5 11.475 19.5 9C19.5 8.505 19.425 8.04 19.26 7.59C24.33 4.575 30.09 3 36 3C54.195 3 69 17.805 69 36C69 46.545 63.96 56.4 55.455 62.625Z" fill="#3E3C3E"/>
<path d="M36 43.5C40.1421 43.5 43.5 40.1421 43.5 36C43.5 31.8579 40.1421 28.5 36 28.5C31.8579 28.5 28.5 31.8579 28.5 36C28.5 40.1421 31.8579 43.5 36 43.5Z" fill="#3E3C3E"/>
<path d="M57.825 41.46C58.275 39.675 58.5 37.845 58.5 36C58.5 23.595 48.405 13.5 36 13.5C23.595 13.5 13.5 23.595 13.5 36C13.5 48.405 23.595 58.5 36 58.5C43.155 58.5 49.83 55.11 54.075 49.38C54.39 49.455 54.72 49.5 55.065 49.5C57.54 49.5 59.565 47.475 59.565 45C59.565 43.56 58.875 42.27 57.825 41.46ZM36 55.5C25.245 55.5 16.5 46.755 16.5 36C16.5 25.245 25.245 16.5 36 16.5C46.755 16.5 55.5 25.245 55.5 36C55.5 37.515 55.32 39.015 54.975 40.5C52.545 40.545 50.565 42.555 50.565 45C50.565 46.05 50.925 47.025 51.54 47.79C47.835 52.65 42.12 55.5 36 55.5Z" fill="#3E3C3E"/>
<path d="M115.293 37.6482L105.423 47.3308C104.514 48.2231 102.998 48.2231 102.088 47.3308C101.179 46.4386 101.179 44.9515 102.088 44.0592L107.916 38.3091H86.3579C85.0442 38.3091 84 37.2847 84 35.9959C84 34.7071 85.0442 33.6826 86.3579 33.6826H107.916L102.088 27.9656C101.179 27.0733 101.179 25.5862 102.088 24.694C102.56 24.2313 103.166 24 103.773 24C104.379 24 104.985 24.2313 105.457 24.694L115.293 34.3435C115.731 34.7731 116 35.368 116 35.9959C116 36.6238 115.764 37.2186 115.293 37.6482Z" fill="#3E3C3E"/>
<path d="M192.626 28.4345C191.816 28.4345 191.05 28.6007 190.319 28.8515L183.199 16.1997C184.722 14.8131 185.702 12.8124 185.702 10.5655C185.702 6.39342 182.393 3 178.328 3C174.77 3 171.794 5.59777 171.105 9.04351H156.967C156.278 5.59931 153.301 3.00154 149.744 3.00154C145.677 3.00154 142.37 6.39495 142.37 10.5671C142.37 12.7924 143.33 14.7761 144.826 16.1628L137.684 28.8546C136.953 28.6037 136.187 28.4375 135.375 28.4375C131.307 28.4345 128 31.8294 128 36C128 40.1706 131.307 43.564 135.374 43.564C136.184 43.564 136.951 43.3978 137.681 43.1485L144.823 55.8388C143.327 57.2238 142.369 59.2076 142.369 61.4329C142.369 65.605 145.676 69 149.743 69C153.299 69 156.276 66.4022 156.965 62.9565H171.104C171.792 66.4007 174.768 69 178.326 69C182.391 69 185.701 65.605 185.701 61.4329C185.701 59.186 184.721 57.1854 183.197 55.8003L190.317 43.1485C191.048 43.3963 191.814 43.564 192.624 43.564C196.692 43.564 200 40.1706 200 36C200 31.8294 196.692 28.4345 192.626 28.4345ZM180.625 54.2829C179.897 54.0367 179.133 53.8689 178.328 53.8689C174.77 53.8689 171.794 56.4667 171.105 59.9109H156.967C156.278 56.4682 153.301 53.8689 149.744 53.8689C148.915 53.8689 148.133 54.0413 147.389 54.2998L140.255 41.6264C141.773 40.2398 142.748 38.2438 142.748 36C142.748 33.7562 141.773 31.7602 140.255 30.3735L147.388 17.6986C148.132 17.9572 148.916 18.1311 149.743 18.1311C153.299 18.1311 156.276 15.5333 156.965 12.0876L171.104 12.0891C171.792 15.5318 174.768 18.1311 178.326 18.1311C179.132 18.1311 179.896 17.9649 180.622 17.7171L187.743 30.3735C186.225 31.7602 185.25 33.7577 185.25 36.0015C185.25 38.2453 186.225 40.2414 187.743 41.628L180.625 54.2829Z" fill="#3E3C3E"/>
<path d="M243.293 37.6482L233.423 47.3308C232.514 48.2231 230.998 48.2231 230.088 47.3308C229.179 46.4386 229.179 44.9515 230.088 44.0592L235.916 38.3091H214.358C213.044 38.3091 212 37.2847 212 35.9959C212 34.7071 213.044 33.6826 214.358 33.6826H235.916L230.088 27.9656C229.179 27.0733 229.179 25.5862 230.088 24.694C230.56 24.2313 231.166 24 231.773 24C232.379 24 232.985 24.2313 233.457 24.694L243.293 34.3435C243.731 34.7731 244 35.368 244 35.9959C244 36.6238 243.764 37.2186 243.293 37.6482Z" fill="#3E3C3E"/>
<path d="M271.997 1.21659e-07C268.833 -0.000389981 265.74 0.937387 263.11 2.69474C260.479 4.4521 258.429 6.95005 257.218 9.87276C256.007 12.7954 255.69 16.0115 256.307 19.1145C256.924 22.2173 258.448 25.0674 260.685 27.3042C262.922 29.5413 265.772 31.0645 268.875 31.6818C271.977 32.2987 275.193 31.9819 278.116 30.771C281.039 29.5602 283.537 27.5098 285.294 24.8793C287.052 22.2488 287.99 19.1562 287.989 15.9925C287.984 11.7527 286.297 7.68818 283.299 4.69021C280.301 1.69224 276.236 0.00555159 271.997 1.21659e-07ZM271.997 27.9878C269.624 27.9884 267.305 27.2853 265.333 25.9677C263.36 24.6503 261.823 22.7772 260.915 20.586C260.007 18.3946 259.769 15.9832 260.231 13.6566C260.694 11.33 261.835 9.19281 263.513 7.51525C265.19 5.83765 267.326 4.69504 269.653 4.2319C271.979 3.76876 274.391 4.00585 276.583 4.91326C278.774 5.82064 280.647 7.35755 281.966 9.32965C283.284 11.3017 283.988 13.6204 283.988 15.9925C283.985 19.1721 282.72 22.2206 280.472 24.4694C278.224 26.7182 275.176 27.9836 271.997 27.9878Z" fill="#3E3C3E"/>
<path d="M271.996 9.32715C270.678 9.32715 269.389 9.71809 268.293 10.4505C267.197 11.183 266.342 12.224 265.838 13.442C265.333 14.66 265.201 16.0003 265.459 17.2933C265.716 18.5865 266.351 19.7742 267.283 20.7062C268.215 21.6386 269.403 22.2735 270.696 22.5307C271.989 22.7879 273.329 22.6558 274.547 22.1514C275.765 21.6467 276.806 20.7923 277.539 19.6961C278.271 18.6 278.662 17.3113 278.662 15.9929C278.66 14.2255 277.958 12.531 276.708 11.2813C275.458 10.0316 273.764 9.32874 271.996 9.32715ZM271.996 18.6576C271.469 18.6576 270.954 18.5012 270.516 18.2087C270.078 17.9157 269.736 17.4996 269.534 17.0127C269.333 16.5257 269.28 15.99 269.383 15.473C269.486 14.9562 269.739 14.4813 270.112 14.1087C270.485 13.736 270.96 13.4822 271.477 13.3794C271.993 13.2766 272.529 13.3294 273.016 13.5311C273.503 13.7327 273.919 14.0743 274.212 14.5125C274.505 14.9507 274.661 15.4659 274.661 15.9929C274.66 16.6994 274.379 17.3767 273.88 17.8762C273.38 18.3758 272.703 18.6567 271.996 18.6576Z" fill="#3E3C3E"/>
<path d="M312.007 31.99C315.171 31.9894 318.263 31.0514 320.893 29.2935C323.523 27.5359 325.573 25.0381 326.783 22.1156C327.993 19.1928 328.31 15.9772 327.693 12.8747C327.075 9.77227 325.552 6.92248 323.315 4.68572C321.079 2.44896 318.229 0.925633 315.126 0.308429C312.024 -0.308804 308.808 0.00775039 305.886 1.21809C302.963 2.42843 300.465 4.47818 298.708 7.10817C296.95 9.73812 296.011 12.8302 296.011 15.9935C296.015 20.2347 297.702 24.3008 300.701 27.2995C303.7 30.2985 307.766 31.9852 312.007 31.99ZM312.007 4.00205C314.38 4.00238 316.698 4.70612 318.67 6.02428C320.643 7.34244 322.179 9.21577 323.087 11.4074C323.994 13.5991 324.231 16.0106 323.768 18.337C323.305 20.6635 322.162 22.8004 320.485 24.4772C318.807 26.1544 316.67 27.2965 314.344 27.7589C312.017 28.2213 309.606 27.9834 307.414 27.0753C305.223 26.167 303.35 24.6297 302.032 22.657C300.715 20.6845 300.012 18.3655 300.012 15.9935C300.016 12.8137 301.281 9.76537 303.53 7.5173C305.779 5.26919 308.827 4.00499 312.007 4.00205Z" fill="#3E3C3E"/>
<path d="M312.007 22.6587C313.325 22.6587 314.614 22.2677 315.71 21.5352C316.807 20.8027 317.661 19.7617 318.165 18.5437C318.67 17.3258 318.802 15.9855 318.545 14.6925C318.287 13.3994 317.653 12.2117 316.72 11.2795C315.788 10.3473 314.6 9.71243 313.307 9.45523C312.014 9.19803 310.674 9.33004 309.456 9.83453C308.238 10.3391 307.197 11.1934 306.465 12.2896C305.732 13.3858 305.341 14.6745 305.341 15.9929C305.343 17.7603 306.046 19.4547 307.295 20.7046C308.545 21.9544 310.24 22.6572 312.007 22.6587ZM312.007 13.3282C312.534 13.3282 313.049 13.4845 313.487 13.7773C313.926 14.0701 314.267 14.4863 314.469 14.9732C314.671 15.4601 314.723 15.9959 314.62 16.5128C314.518 17.0297 314.264 17.5045 313.891 17.8771C313.519 18.2499 313.044 18.5035 312.527 18.6064C312.01 18.7094 311.474 18.6565 310.987 18.4549C310.5 18.2532 310.084 17.9116 309.791 17.4734C309.499 17.0351 309.342 16.5199 309.342 15.9929C309.343 15.2864 309.624 14.6091 310.124 14.1096C310.623 13.61 311.301 13.3291 312.007 13.3282Z" fill="#3E3C3E"/>
<path d="M271.997 40.0107C268.833 40.0104 265.74 40.9482 263.11 42.7055C260.479 44.463 258.429 46.9609 257.218 49.8837C256.007 52.8061 255.69 56.0224 256.307 59.1252C256.924 62.228 258.448 65.0782 260.685 67.315C262.922 69.552 265.772 71.0756 268.875 71.6925C271.977 72.3095 275.193 71.9926 278.116 70.7818C281.039 69.571 283.537 67.5208 285.294 64.89C287.052 62.2595 287.99 59.1669 287.989 56.0035C287.984 51.7637 286.297 47.6991 283.299 44.701C280.301 41.7032 276.236 40.0164 271.997 40.0107ZM271.997 67.9988C269.624 67.9991 267.305 67.2961 265.333 65.9784C263.36 64.6611 261.823 62.7883 260.915 60.5968C260.007 58.4053 259.769 55.9939 260.231 53.6673C260.694 51.3408 261.836 49.2037 263.513 47.5259C265.19 45.8485 267.326 44.7058 269.653 44.2428C271.979 43.7794 274.391 44.0168 276.583 44.9242C278.774 45.8317 280.648 47.3684 281.966 49.3405C283.284 51.3126 283.988 53.6313 283.988 56.0035C283.985 59.1831 282.72 62.2316 280.472 64.4804C278.224 66.7289 275.176 67.9943 271.997 67.9988Z" fill="#3E3C3E"/>
<path d="M271.996 49.3369C270.678 49.3369 269.389 49.7279 268.293 50.4604C267.197 51.1929 266.342 52.2339 265.838 53.4519C265.333 54.6699 265.201 56.0101 265.459 57.3031C265.716 58.5962 266.351 59.7839 267.283 60.7162C268.215 61.6483 269.403 62.2832 270.696 62.5404C271.989 62.7976 273.329 62.6655 274.547 62.1611C275.765 61.6567 276.806 60.802 277.539 59.7059C278.271 58.61 278.662 57.3211 278.662 56.0026C278.66 54.2354 277.958 52.5409 276.708 51.291C275.458 50.0412 273.764 49.3384 271.996 49.3369ZM271.996 58.6673C271.469 58.6673 270.954 58.5112 270.516 58.2184C270.078 57.9255 269.736 57.5093 269.534 57.0225C269.333 56.5355 269.28 55.9999 269.383 55.4828C269.486 54.9658 269.739 54.4911 270.112 54.1184C270.485 53.7457 270.96 53.4921 271.477 53.3892C271.993 53.2863 272.529 53.3391 273.016 53.5407C273.503 53.7424 273.919 54.0842 274.212 54.5223C274.505 54.9604 274.661 55.4756 274.661 56.0026C274.66 56.7093 274.379 57.3865 273.88 57.8862C273.38 58.3855 272.703 58.6664 271.996 58.6673Z" fill="#3E3C3E"/>
<path d="M312.007 40.0107C308.843 40.0104 305.751 40.9482 303.12 42.7055C300.49 44.463 298.439 46.9609 297.228 49.8837C296.018 52.8061 295.701 56.0224 296.318 59.1252C296.935 62.228 298.458 65.0782 300.695 67.315C302.932 69.552 305.782 71.0756 308.885 71.6925C311.988 72.3095 315.204 71.9926 318.127 70.7818C321.049 69.571 323.548 67.5208 325.305 64.89C327.062 62.2595 328 59.1669 328 56.0035C327.994 51.7637 326.307 47.6991 323.309 44.701C320.312 41.7032 316.247 40.0164 312.007 40.0107ZM312.007 67.9988C309.635 67.9991 307.316 67.2961 305.343 65.9784C303.371 64.6611 301.833 62.7883 300.925 60.5968C300.017 58.4053 299.779 55.9939 300.242 53.6673C300.704 51.3408 301.846 49.2037 303.523 47.5259C305.2 45.8485 307.337 44.7058 309.663 44.2428C311.99 43.7794 314.401 44.0168 316.593 44.9242C318.785 45.8317 320.658 47.3684 321.976 49.3405C323.294 51.3126 323.998 53.6313 323.999 56.0035C323.995 59.1831 322.731 62.2316 320.483 64.4804C318.235 66.7289 315.187 67.9943 312.007 67.9988Z" fill="#3E3C3E"/>
<path d="M312.007 49.3369C310.689 49.3369 309.4 49.7279 308.304 50.4604C307.208 51.1929 306.354 52.2339 305.849 53.4519C305.344 54.6699 305.212 56.0101 305.47 57.3031C305.727 58.5962 306.362 59.7839 307.294 60.7162C308.226 61.6483 309.414 62.2832 310.707 62.5404C312 62.7976 313.34 62.6655 314.558 62.1611C315.776 61.6567 316.817 60.802 317.55 59.7059C318.282 58.61 318.673 57.3211 318.673 56.0026C318.672 54.2354 317.969 52.5409 316.719 51.291C315.469 50.0412 313.775 49.3384 312.007 49.3369ZM312.007 58.6673C311.481 58.6673 310.965 58.5112 310.527 58.2184C310.089 57.9255 309.747 57.5093 309.546 57.0225C309.344 56.5355 309.291 55.9999 309.394 55.4828C309.497 54.9658 309.751 54.4911 310.123 54.1184C310.496 53.7457 310.971 53.4921 311.487 53.3892C312.004 53.2863 312.54 53.3391 313.027 53.5407C313.514 53.7424 313.93 54.0842 314.223 54.5223C314.516 54.9604 314.672 55.4756 314.672 56.0026C314.671 56.7093 314.39 57.3865 313.891 57.8862C313.391 58.3855 312.714 58.6664 312.007 58.6673Z" fill="#3E3C3E"/>
<path d="M371.293 37.6482L361.423 47.3308C360.514 48.2231 358.998 48.2231 358.088 47.3308C357.179 46.4386 357.179 44.9515 358.088 44.0592L363.916 38.3091H342.358C341.044 38.3091 340 37.2847 340 35.9959C340 34.7071 341.044 33.6826 342.358 33.6826H363.916L358.088 27.9656C357.179 27.0733 357.179 25.5862 358.088 24.694C358.56 24.2313 359.166 24 359.773 24C360.379 24 360.985 24.2313 361.457 24.694L371.293 34.3435C371.731 34.7731 372 35.368 372 35.9959C372 36.6238 371.764 37.2186 371.293 37.6482Z" fill="#3E3C3E"/>
<path d="M446.384 3H393.616C391.066 3 388.62 4.03904 386.816 5.88853C385.013 7.73803 384 10.2465 384 12.8621V59.1379C384 61.7535 385.013 64.262 386.816 66.1115C388.62 67.961 391.066 69 393.616 69H446.384C448.934 69 451.38 67.961 453.184 66.1115C454.987 64.262 456 61.7535 456 59.1379V12.8621C456 11.567 455.751 10.2845 455.268 9.08802C454.785 7.8915 454.077 6.80431 453.184 5.88853C452.291 4.97276 451.231 4.24632 450.064 3.75071C448.897 3.25509 447.647 3 446.384 3ZM451.562 59.1379C451.562 60.5463 451.016 61.897 450.045 62.8929C449.074 63.8888 447.757 64.4483 446.384 64.4483H393.616C392.243 64.4483 390.926 63.8888 389.955 62.8929C388.984 61.897 388.438 60.5463 388.438 59.1379V12.8621C388.438 11.4537 388.984 10.103 389.955 9.10709C390.926 8.11121 392.243 7.55172 393.616 7.55172H446.384C447.757 7.55172 449.074 8.11121 450.045 9.10709C451.016 10.103 451.562 11.4537 451.562 12.8621V59.1379Z" fill="#3E3C3E"/>
<path d="M442.013 12.043H397.995C396.229 12.043 394.536 12.7623 393.287 14.0427C392.039 15.3231 391.338 17.0598 391.338 18.8706V23.3616C391.338 25.1724 392.039 26.909 393.287 28.1894C394.536 29.4698 396.229 30.1892 397.995 30.1892H442.013C443.778 30.1892 445.472 29.4698 446.72 28.1894C447.969 26.909 448.67 25.1724 448.67 23.3616V18.8706C448.67 17.0598 447.969 15.3231 446.72 14.0427C445.472 12.7623 443.778 12.043 442.013 12.043ZM444.232 23.3616C444.232 23.9652 443.998 24.5441 443.582 24.9709C443.166 25.3977 442.601 25.6375 442.013 25.6375H397.995C397.406 25.6375 396.842 25.3977 396.426 24.9709C396.009 24.5441 395.776 23.9652 395.776 23.3616V18.8706C395.776 18.267 396.009 17.6881 396.426 17.2613C396.842 16.8345 397.406 16.5947 397.995 16.5947H442.013C442.601 16.5947 443.166 16.8345 443.582 17.2613C443.998 17.6881 444.232 18.267 444.232 18.8706V23.3616Z" fill="#3E3C3E"/>
<path d="M412.034 32.8672H397.98C396.214 32.8672 394.521 33.5865 393.273 34.8669C392.024 36.1474 391.323 37.884 391.323 39.6948V54.981C391.323 56.7918 392.024 58.5284 393.273 59.8088C394.521 61.0892 396.214 61.8086 397.98 61.8086H412.034C413.799 61.8086 415.492 61.0892 416.741 59.8088C417.989 58.5284 418.691 56.7918 418.691 54.981V39.6948C418.691 37.884 417.989 36.1474 416.741 34.8669C415.492 33.5865 413.799 32.8672 412.034 32.8672ZM414.253 54.9734C414.253 55.577 414.019 56.1559 413.603 56.5827C413.187 57.0095 412.622 57.2493 412.034 57.2493H397.98C397.391 57.2493 396.827 57.0095 396.411 56.5827C395.995 56.1559 395.761 55.577 395.761 54.9734V39.6948C395.761 39.0912 395.995 38.5123 396.411 38.0855C396.827 37.6587 397.391 37.4189 397.98 37.4189H412.034C412.622 37.4189 413.187 37.6587 413.603 38.0855C414.019 38.5123 414.253 39.0912 414.253 39.6948V54.9734Z" fill="#3E3C3E"/>
<path d="M442.013 32.8672H427.959C426.193 32.8672 424.5 33.5865 423.252 34.8669C422.003 36.1474 421.302 37.884 421.302 39.6948V54.981C421.302 56.7918 422.003 58.5284 423.252 59.8088C424.5 61.0892 426.193 61.8086 427.959 61.8086H442.013C443.778 61.8086 445.471 61.0892 446.72 59.8088C447.968 58.5284 448.67 56.7918 448.67 54.981V39.6948C448.67 37.884 447.968 36.1474 446.72 34.8669C445.471 33.5865 443.778 32.8672 442.013 32.8672ZM444.232 54.9734C444.232 55.577 443.998 56.1559 443.582 56.5827C443.166 57.0095 442.601 57.2493 442.013 57.2493H427.959C427.37 57.2493 426.806 57.0095 426.39 56.5827C425.974 56.1559 425.74 55.577 425.74 54.9734V39.6948C425.74 39.0912 425.974 38.5123 426.39 38.0855C426.806 37.6587 427.37 37.4189 427.959 37.4189H442.013C442.601 37.4189 443.166 37.6587 443.582 38.0855C443.998 38.5123 444.232 39.0912 444.232 39.6948V54.9734Z" fill="#3E3C3E"/>
</svg>
