<svg width="95" height="40" viewBox="0 0 95 40" fill="none" xmlns="http://www.w3.org/2000/svg">
<rect width="95" height="40" rx="4" fill="#F05252"/>
<path d="M24 30C29.5228 30 34 25.5228 34 20C34 14.4772 29.5228 10 24 10C18.4772 10 14 14.4772 14 20C14 25.5228 18.4772 30 24 30Z" fill="white"/>
<path d="M50.1016 13.625V25H47.7656V13.625H50.1016ZM53.6016 13.625V15.4609H44.3203V13.625H53.6016ZM62.5703 23.1719V25H56.5156V23.1719H62.5703ZM57.2812 13.625V25H54.9375V13.625H57.2812ZM61.7812 18.2578V20.0391H56.5156V18.2578H61.7812ZM62.5625 13.625V15.4609H56.5156V13.625H62.5625ZM65.8672 13.625L68.0078 17.5938L70.1484 13.625H72.8281L69.5234 19.2656L72.9141 25H70.2109L68.0078 20.9531L65.8047 25H63.0859L66.4844 19.2656L63.1719 13.625H65.8672ZM79.1797 13.625V25H76.8438V13.625H79.1797ZM82.6797 13.625V15.4609H73.3984V13.625H82.6797Z" fill="white"/>
</svg>
