<svg width="500" height="52" viewBox="0 0 500 52" fill="none" xmlns="http://www.w3.org/2000/svg">
<g clip-path="url(#clip0_3821_4221)">
<path d="M253 26C253 11.6406 241.359 0 227 0C212.641 0 201 11.6406 201 26C201 40.3594 212.641 52 227 52C241.359 52 253 40.3594 253 26Z" fill="#F05252"/>
<path d="M235.571 23.8571H229.143V17.4286C229.143 16.6397 228.503 16 227.714 16H226.286C225.497 16 224.857 16.6397 224.857 17.4286V23.8571H218.429C217.64 23.8571 217 24.4969 217 25.2857V26.7143C217 27.5031 217.64 28.1429 218.429 28.1429H224.857V34.5714C224.857 35.3603 225.497 36 226.286 36H227.714C228.503 36 229.143 35.3603 229.143 34.5714V28.1429H235.571C236.36 28.1429 237 27.5031 237 26.7143V25.2857C237 24.4969 236.36 23.8571 235.571 23.8571Z" fill="white"/>
<path d="M144 13H13C5.8203 13 0 18.8203 0 26C0 33.1797 5.8203 39 13 39H144C151.18 39 157 33.1797 157 26C157 18.8203 151.18 13 144 13Z" fill="#292828"/>
<path d="M13 35C17.9706 35 22 30.9706 22 26C22 21.0294 17.9706 17 13 17C8.02944 17 4 21.0294 4 26C4 30.9706 8.02944 35 13 35Z" fill="#F05252"/>
<path d="M32.7402 26.1815L32.8382 24.4557L31.3893 25.4059L30.8694 24.5025L32.4163 23.727L30.8694 22.9514L31.3893 22.048L32.8382 22.9983L32.7402 21.2724H33.7757L33.6819 22.9983L35.1308 22.048L35.6507 22.9514L34.0995 23.727L35.6507 24.5025L35.1308 25.4059L33.6819 24.4557L33.7757 26.1815H32.7402ZM36.618 30.0935C36.3595 30.0935 36.1379 30.0025 35.9532 29.8207C35.7686 29.6389 35.6777 29.4173 35.6805 29.1559C35.6777 28.9003 35.7686 28.6815 35.9532 28.4997C36.1379 28.3179 36.3595 28.227 36.618 28.227C36.868 28.227 37.0853 28.3179 37.27 28.4997C37.4575 28.6815 37.5527 28.9003 37.5555 29.1559C37.5527 29.3292 37.5072 29.4869 37.4191 29.629C37.3339 29.771 37.2203 29.8846 37.0782 29.9699C36.939 30.0523 36.7856 30.0935 36.618 30.0935ZM39.1482 32.4542V23.4542H40.6652V24.5366H40.7547C40.8343 24.3775 40.9465 24.2085 41.0914 24.0295C41.2363 23.8477 41.4323 23.6929 41.6794 23.565C41.9266 23.4344 42.2419 23.369 42.6255 23.369C43.1311 23.369 43.5871 23.4983 43.9934 23.7568C44.4024 24.0125 44.7263 24.3917 44.9649 24.8946C45.2064 25.3946 45.3272 26.0082 45.3272 26.7355C45.3272 27.4542 45.2093 28.065 44.9735 28.5679C44.7377 29.0707 44.4166 29.4542 44.0104 29.7185C43.6041 29.9827 43.1439 30.1148 42.6297 30.1148C42.2547 30.1148 41.9436 30.0523 41.6965 29.9273C41.4493 29.8023 41.2505 29.6517 41.0999 29.4756C40.9522 29.2966 40.8371 29.1275 40.7547 28.9685H40.6908V32.4542H39.1482ZM40.661 26.727C40.661 27.1503 40.7206 27.521 40.8399 27.8392C40.9621 28.1574 41.1368 28.4059 41.3641 28.5849C41.5942 28.7611 41.8726 28.8491 42.1993 28.8491C42.5402 28.8491 42.8257 28.7582 43.0559 28.5764C43.286 28.3917 43.4593 28.1403 43.5757 27.8221C43.6951 27.5011 43.7547 27.1361 43.7547 26.727C43.7547 26.3207 43.6965 25.9599 43.58 25.6446C43.4635 25.3292 43.2902 25.0821 43.0601 24.9031C42.83 24.7241 42.5431 24.6346 42.1993 24.6346C41.8698 24.6346 41.5899 24.7213 41.3598 24.8946C41.1297 25.0679 40.955 25.3108 40.8357 25.6233C40.7192 25.9358 40.661 26.3037 40.661 26.727ZM46.6482 29.9997V23.4542H48.1439V24.5452H48.2121C48.3314 24.1673 48.536 23.8761 48.8257 23.6716C49.1184 23.4642 49.4522 23.3605 49.8272 23.3605C49.9124 23.3605 50.0076 23.3648 50.1127 23.3733C50.2206 23.379 50.3101 23.3889 50.3811 23.4031V24.8221C50.3158 24.7994 50.2121 24.7795 50.0701 24.7625C49.9309 24.7426 49.7959 24.7327 49.6652 24.7327C49.384 24.7327 49.1311 24.7937 48.9067 24.9159C48.6851 25.0352 48.5104 25.2014 48.3826 25.4145C48.2547 25.6275 48.1908 25.8733 48.1908 26.1517V29.9997H46.6482ZM51.406 29.9997V23.4542H52.9486V29.9997H51.406ZM52.1816 22.5253C51.9372 22.5253 51.727 22.4443 51.5509 22.2824C51.3747 22.1176 51.2867 21.9202 51.2867 21.69C51.2867 21.4571 51.3747 21.2596 51.5509 21.0977C51.727 20.9329 51.9372 20.8506 52.1816 20.8506C52.4287 20.8506 52.6389 20.9329 52.8122 21.0977C52.9884 21.2596 53.0764 21.4571 53.0764 21.69C53.0764 21.9202 52.9884 22.1176 52.8122 22.2824C52.6389 22.4443 52.4287 22.5253 52.1816 22.5253ZM54.5349 29.9997V23.4542H56.0093V24.5665H56.086C56.2224 24.1915 56.4483 23.8988 56.7636 23.6886C57.0789 23.4756 57.4554 23.369 57.8929 23.369C58.336 23.369 58.7096 23.477 59.0136 23.6929C59.3204 23.9059 59.5363 24.1971 59.6613 24.5665H59.7295C59.8744 24.2028 60.1187 23.9131 60.4625 23.6971C60.809 23.4784 61.2196 23.369 61.694 23.369C62.2963 23.369 62.7877 23.5594 63.1684 23.94C63.5491 24.3207 63.7394 24.8761 63.7394 25.6062V29.9997H62.1926V25.8449C62.1926 25.4386 62.0846 25.1417 61.8687 24.9542C61.6528 24.7639 61.3886 24.6687 61.0761 24.6687C60.7039 24.6687 60.4127 24.7852 60.2025 25.0182C59.9951 25.2483 59.8914 25.548 59.8914 25.9173V29.9997H58.3787V25.7809C58.3787 25.4429 58.2764 25.173 58.0718 24.9713C57.8701 24.7696 57.6059 24.6687 57.2792 24.6687C57.0576 24.6687 56.8559 24.7256 56.6741 24.8392C56.4923 24.95 56.3474 25.1077 56.2394 25.3122C56.1315 25.5139 56.0775 25.7497 56.0775 26.0196V29.9997H54.5349ZM67.188 30.1318C66.7732 30.1318 66.3996 30.0579 66.0672 29.9102C65.7377 29.7596 65.4763 29.5381 65.2831 29.2454C65.0928 28.9528 64.9976 28.592 64.9976 28.1631C64.9976 27.7937 65.0658 27.4883 65.2022 27.2469C65.3385 27.0054 65.5246 26.8122 65.7604 26.6673C65.9962 26.5224 66.2618 26.4131 66.5573 26.3392C66.8556 26.2625 67.1638 26.2071 67.482 26.173C67.8655 26.1332 68.1766 26.0977 68.4152 26.0665C68.6539 26.0324 68.8272 25.9812 68.9351 25.9131C69.0459 25.842 69.1013 25.7327 69.1013 25.5849V25.5594C69.1013 25.2383 69.0061 24.9898 68.8158 24.8136C68.6255 24.6375 68.3513 24.5494 67.9934 24.5494C67.6155 24.5494 67.3158 24.6318 67.0942 24.7966C66.8755 24.9613 66.7277 25.1559 66.651 25.3804L65.2107 25.1758C65.3243 24.7781 65.5118 24.4457 65.7732 24.1787C66.0345 23.9088 66.3541 23.7071 66.732 23.5736C67.1098 23.4372 67.5274 23.369 67.9848 23.369C68.3002 23.369 68.6141 23.4059 68.9266 23.4798C69.2391 23.5537 69.5246 23.6758 69.7831 23.8463C70.0416 24.0139 70.249 24.2426 70.4053 24.5324C70.5644 24.8221 70.6439 25.1844 70.6439 25.619V29.9997H69.161V29.1006H69.1098C69.0161 29.2824 68.884 29.4528 68.7135 29.6119C68.5459 29.7682 68.3343 29.8946 68.0786 29.9912C67.8257 30.0849 67.5289 30.1318 67.188 30.1318ZM67.5885 28.9983C67.8982 28.9983 68.1666 28.9372 68.3939 28.815C68.6212 28.69 68.7959 28.5253 68.9181 28.3207C69.0431 28.1162 69.1056 27.8932 69.1056 27.6517V26.8804C69.0573 26.9202 68.9749 26.9571 68.8584 26.9912C68.7448 27.0253 68.6169 27.0551 68.4749 27.0807C68.3328 27.1062 68.1922 27.129 68.053 27.1488C67.9138 27.1687 67.7931 27.1858 67.6908 27.2C67.4607 27.2312 67.2547 27.2824 67.0729 27.3534C66.8911 27.4244 66.7476 27.5238 66.6425 27.6517C66.5374 27.7767 66.4848 27.9386 66.4848 28.1375C66.4848 28.4216 66.5885 28.6361 66.7959 28.7809C67.0033 28.9258 67.2675 28.9983 67.5885 28.9983ZM72.1951 29.9997V23.4542H73.6908V24.5452H73.759C73.8783 24.1673 74.0828 23.8761 74.3726 23.6716C74.6652 23.4642 74.999 23.3605 75.374 23.3605C75.4593 23.3605 75.5544 23.3648 75.6595 23.3733C75.7675 23.379 75.857 23.3889 75.928 23.4031V24.8221C75.8627 24.7994 75.759 24.7795 75.6169 24.7625C75.4777 24.7426 75.3428 24.7327 75.2121 24.7327C74.9309 24.7327 74.678 24.7937 74.4536 24.9159C74.232 25.0352 74.0573 25.2014 73.9294 25.4145C73.8016 25.6275 73.7377 25.8733 73.7377 26.1517V29.9997H72.1951ZM78.1109 32.4542C77.9007 32.4542 77.7061 32.4372 77.5271 32.4031C77.351 32.3719 77.2103 32.3349 77.1052 32.2923L77.4632 31.0906C77.6876 31.156 77.8879 31.1872 78.064 31.1844C78.2402 31.1815 78.395 31.1261 78.5285 31.0182C78.6649 30.9131 78.7799 30.7369 78.8737 30.4898L79.0058 30.1361L76.6322 23.4542H78.2686L79.7771 28.3974H79.8453L81.3581 23.4542H82.9987L80.3779 30.7923C80.2558 31.1389 80.0939 31.4358 79.8921 31.6829C79.6904 31.9329 79.4433 32.1233 79.1507 32.254C78.8609 32.3875 78.5143 32.4542 78.1109 32.4542ZM88.0335 25.7298V26.9997H84.1045V25.7298H88.0335ZM92.5111 30.1275C91.8577 30.1275 91.2966 29.9841 90.8279 29.6971C90.362 29.4102 90.0026 29.0139 89.7497 28.5082C89.4997 27.9997 89.3747 27.4145 89.3747 26.7525C89.3747 26.0878 89.5026 25.5011 89.7583 24.9926C90.0139 24.4812 90.3747 24.0835 90.8407 23.7994C91.3094 23.5125 91.8634 23.369 92.5026 23.369C93.0338 23.369 93.504 23.467 93.9131 23.6631C94.325 23.8562 94.6532 24.1304 94.8975 24.4855C95.1418 24.8378 95.281 25.2497 95.3151 25.7213H93.8407C93.781 25.4059 93.6389 25.1432 93.4145 24.9329C93.1929 24.7199 92.8961 24.6133 92.5239 24.6133C92.2086 24.6133 91.9316 24.6986 91.6929 24.869C91.4543 25.0366 91.2682 25.2781 91.1347 25.5935C91.004 25.9088 90.9387 26.2866 90.9387 26.727C90.9387 27.173 91.004 27.5565 91.1347 27.8775C91.2654 28.1957 91.4486 28.4415 91.6844 28.6148C91.923 28.7852 92.2029 28.8704 92.5239 28.8704C92.7512 28.8704 92.9543 28.8278 93.1333 28.7426C93.3151 28.6545 93.4671 28.5281 93.5892 28.3633C93.7114 28.1986 93.7952 27.9983 93.8407 27.7625H95.3151C95.2782 28.2256 95.1418 28.6361 94.906 28.994C94.6702 29.3491 94.3492 29.6275 93.9429 29.8292C93.5367 30.0281 93.0594 30.1275 92.5111 30.1275ZM99.4369 30.1275C98.7977 30.1275 98.2437 29.9869 97.775 29.7057C97.3062 29.4244 96.9426 29.0309 96.684 28.5253C96.4284 28.0196 96.3005 27.4287 96.3005 26.7525C96.3005 26.0764 96.4284 25.4841 96.684 24.9756C96.9426 24.467 97.3062 24.0721 97.775 23.7909C98.2437 23.5096 98.7977 23.369 99.4369 23.369C100.076 23.369 100.63 23.5096 101.099 23.7909C101.567 24.0721 101.93 24.467 102.185 24.9756C102.444 25.4841 102.573 26.0764 102.573 26.7525C102.573 27.4287 102.444 28.0196 102.185 28.5253C101.93 29.0309 101.567 29.4244 101.099 29.7057C100.63 29.9869 100.076 30.1275 99.4369 30.1275ZM99.4454 28.8917C99.792 28.8917 100.082 28.7966 100.315 28.6062C100.548 28.4131 100.721 28.1545 100.835 27.8307C100.951 27.5068 101.009 27.146 101.009 26.7483C101.009 26.3477 100.951 25.9855 100.835 25.6616C100.721 25.3349 100.548 25.075 100.315 24.8818C100.082 24.6886 99.792 24.592 99.4454 24.592C99.0903 24.592 98.7948 24.6886 98.559 24.8818C98.3261 25.075 98.1514 25.3349 98.0349 25.6616C97.9213 25.9855 97.8644 26.3477 97.8644 26.7483C97.8644 27.146 97.9213 27.5068 98.0349 27.8307C98.1514 28.1545 98.3261 28.4131 98.559 28.6062C98.7948 28.7966 99.0903 28.8917 99.4454 28.8917ZM105.425 26.1645V29.9997H103.882V23.4542H105.357V24.5665H105.434C105.584 24.2 105.824 23.9088 106.154 23.6929C106.486 23.477 106.897 23.369 107.385 23.369C107.837 23.369 108.23 23.4656 108.566 23.6588C108.904 23.852 109.165 24.1318 109.35 24.4983C109.537 24.8648 109.63 25.3094 109.627 25.8321V29.9997H108.084V26.0707C108.084 25.6332 107.971 25.2909 107.743 25.0437C107.519 24.7966 107.208 24.673 106.81 24.673C106.54 24.673 106.3 24.7327 106.09 24.852C105.882 24.9684 105.719 25.1375 105.6 25.3591C105.483 25.5807 105.425 25.8491 105.425 26.1645ZM114.463 23.4542V24.6474H110.701V23.4542H114.463ZM111.63 21.8861H113.172V28.0309C113.172 28.2383 113.203 28.3974 113.266 28.5082C113.331 28.6162 113.417 28.69 113.522 28.7298C113.627 28.7696 113.743 28.7895 113.871 28.7895C113.968 28.7895 114.056 28.7824 114.135 28.7682C114.218 28.754 114.28 28.7412 114.323 28.7298L114.583 29.9358C114.5 29.9642 114.382 29.9954 114.229 30.0295C114.078 30.0636 113.894 30.0835 113.675 30.0892C113.289 30.1006 112.941 30.0423 112.631 29.9145C112.321 29.7838 112.076 29.5821 111.894 29.3094C111.715 29.0366 111.627 28.6957 111.63 28.2866V21.8861ZM117.637 30.1318C117.222 30.1318 116.849 30.0579 116.516 29.9102C116.187 29.7596 115.925 29.5381 115.732 29.2454C115.542 28.9528 115.447 28.592 115.447 28.1631C115.447 27.7937 115.515 27.4883 115.651 27.2469C115.788 27.0054 115.974 26.8122 116.21 26.6673C116.445 26.5224 116.711 26.4131 117.006 26.3392C117.305 26.2625 117.613 26.2071 117.931 26.173C118.315 26.1332 118.626 26.0977 118.864 26.0665C119.103 26.0324 119.276 25.9812 119.384 25.9131C119.495 25.842 119.55 25.7327 119.55 25.5849V25.5594C119.55 25.2383 119.455 24.9898 119.265 24.8136C119.075 24.6375 118.8 24.5494 118.442 24.5494C118.065 24.5494 117.765 24.6318 117.543 24.7966C117.325 24.9613 117.177 25.1559 117.1 25.3804L115.66 25.1758C115.773 24.7781 115.961 24.4457 116.222 24.1787C116.484 23.9088 116.803 23.7071 117.181 23.5736C117.559 23.4372 117.977 23.369 118.434 23.369C118.749 23.369 119.063 23.4059 119.376 23.4798C119.688 23.5537 119.974 23.6758 120.232 23.8463C120.491 24.0139 120.698 24.2426 120.854 24.5324C121.013 24.8221 121.093 25.1844 121.093 25.619V29.9997H119.61V29.1006H119.559C119.465 29.2824 119.333 29.4528 119.163 29.6119C118.995 29.7682 118.783 29.8946 118.528 29.9912C118.275 30.0849 117.978 30.1318 117.637 30.1318ZM118.038 28.9983C118.347 28.9983 118.616 28.9372 118.843 28.815C119.07 28.69 119.245 28.5253 119.367 28.3207C119.492 28.1162 119.555 27.8932 119.555 27.6517V26.8804C119.506 26.9202 119.424 26.9571 119.308 26.9912C119.194 27.0253 119.066 27.0551 118.924 27.0807C118.782 27.1062 118.641 27.129 118.502 27.1488C118.363 27.1687 118.242 27.1858 118.14 27.2C117.91 27.2312 117.704 27.2824 117.522 27.3534C117.34 27.4244 117.197 27.5238 117.092 27.6517C116.987 27.7767 116.934 27.9386 116.934 28.1375C116.934 28.4216 117.038 28.6361 117.245 28.7809C117.452 28.9258 117.717 28.9983 118.038 28.9983ZM122.644 29.9997V23.4542H124.187V29.9997H122.644ZM123.42 22.5253C123.175 22.5253 122.965 22.4443 122.789 22.2824C122.613 22.1176 122.525 21.9202 122.525 21.69C122.525 21.4571 122.613 21.2596 122.789 21.0977C122.965 20.9329 123.175 20.8506 123.42 20.8506C123.667 20.8506 123.877 20.9329 124.05 21.0977C124.227 21.2596 124.315 21.4571 124.315 21.69C124.315 21.9202 124.227 22.1176 124.05 22.2824C123.877 22.4443 123.667 22.5253 123.42 22.5253ZM127.316 26.1645V29.9997H125.773V23.4542H127.248V24.5665H127.324C127.475 24.2 127.715 23.9088 128.044 23.6929C128.377 23.477 128.787 23.369 129.276 23.369C129.728 23.369 130.121 23.4656 130.456 23.6588C130.794 23.852 131.056 24.1318 131.24 24.4983C131.428 24.8648 131.52 25.3094 131.517 25.8321V29.9997H129.975V26.0707C129.975 25.6332 129.861 25.2909 129.634 25.0437C129.409 24.7966 129.098 24.673 128.701 24.673C128.431 24.673 128.191 24.7327 127.98 24.852C127.773 24.9684 127.61 25.1375 127.49 25.3591C127.374 25.5807 127.316 25.8491 127.316 26.1645ZM135.983 30.1275C135.327 30.1275 134.76 29.9912 134.283 29.7185C133.809 29.4429 133.444 29.0537 133.188 28.5508C132.932 28.0452 132.804 27.45 132.804 26.7653C132.804 26.092 132.932 25.5011 133.188 24.9926C133.446 24.4812 133.807 24.0835 134.27 23.7994C134.733 23.5125 135.277 23.369 135.902 23.369C136.306 23.369 136.686 23.4344 137.044 23.565C137.405 23.6929 137.723 23.8917 137.999 24.1616C138.277 24.4315 138.496 24.7753 138.655 25.1929C138.814 25.6077 138.894 26.102 138.894 26.6758V27.1488H133.529V26.1091H137.415C137.412 25.8136 137.348 25.5508 137.223 25.3207C137.098 25.0878 136.924 24.9045 136.699 24.771C136.478 24.6375 136.219 24.5707 135.924 24.5707C135.608 24.5707 135.331 24.6474 135.093 24.8008C134.854 24.9514 134.668 25.1503 134.534 25.3974C134.404 25.6417 134.337 25.9102 134.334 26.2028V27.1105C134.334 27.4912 134.404 27.8179 134.543 28.0906C134.682 28.3605 134.877 28.5679 135.127 28.7128C135.377 28.8548 135.669 28.9258 136.005 28.9258C136.229 28.9258 136.432 28.8946 136.614 28.8321C136.796 28.7667 136.953 28.6716 137.087 28.5466C137.221 28.4216 137.321 28.2667 137.39 28.0821L138.83 28.244C138.739 28.6247 138.566 28.9571 138.31 29.2412C138.057 29.5224 137.733 29.7412 137.338 29.8974C136.944 30.0508 136.492 30.1275 135.983 30.1275ZM140.199 29.9997V23.4542H141.695V24.5452H141.763C141.882 24.1673 142.087 23.8761 142.376 23.6716C142.669 23.4642 143.003 23.3605 143.378 23.3605C143.463 23.3605 143.558 23.3648 143.663 23.3733C143.771 23.379 143.861 23.3889 143.932 23.4031V24.8221C143.866 24.7994 143.763 24.7795 143.621 24.7625C143.482 24.7426 143.347 24.7327 143.216 24.7327C142.935 24.7327 142.682 24.7937 142.457 24.9159C142.236 25.0352 142.061 25.2014 141.933 25.4145C141.805 25.6275 141.741 25.8733 141.741 26.1517V29.9997H140.199Z" fill="white"/>
<path d="M486 13H311C303.268 13 297 19.268 297 27C297 34.732 303.268 41 311 41H486C493.732 41 500 34.732 500 27C500 19.268 493.732 13 486 13Z" fill="#292828"/>
<path d="M310 36C314.971 36 319 31.9706 319 27C319 22.0294 314.971 18 310 18C305.029 18 301 22.0294 301 27C301 31.9706 305.029 36 310 36Z" fill="white"/>
<path d="M330.197 27.5457L330.311 25.5322L328.621 26.6408L328.014 25.5868L329.819 24.682L328.014 23.7772L328.621 22.7232L330.311 23.8319L330.197 21.8184H331.405L331.295 23.8319L332.986 22.7232L333.592 23.7772L331.783 24.682L333.592 25.5868L332.986 26.6408L331.295 25.5322L331.405 27.5457H330.197ZM334.721 32.1096C334.419 32.1096 334.161 32.0035 333.945 31.7914C333.73 31.5793 333.624 31.3207 333.627 31.0158C333.624 30.7175 333.73 30.4623 333.945 30.2502C334.161 30.0381 334.419 29.932 334.721 29.932C335.013 29.932 335.266 30.0381 335.482 30.2502C335.7 30.4623 335.811 30.7175 335.815 31.0158C335.811 31.218 335.758 31.402 335.656 31.5677C335.556 31.7334 335.424 31.866 335.258 31.9654C335.095 32.0615 334.916 32.1096 334.721 32.1096ZM341.004 32.1493C340.258 32.1493 339.612 31.9853 339.065 31.6572C338.518 31.329 338.094 30.87 337.792 30.28C337.494 29.6901 337.345 29.0007 337.345 28.2118C337.345 27.423 337.494 26.732 337.792 26.1387C338.094 25.5454 338.518 25.0847 339.065 24.7566C339.612 24.4285 340.258 24.2644 341.004 24.2644C341.749 24.2644 342.396 24.4285 342.943 24.7566C343.49 25.0847 343.912 25.5454 344.21 26.1387C344.512 26.732 344.663 27.423 344.663 28.2118C344.663 29.0007 344.512 29.6901 344.21 30.28C343.912 30.87 343.49 31.329 342.943 31.6572C342.396 31.9853 341.749 32.1493 341.004 32.1493ZM341.014 30.7076C341.418 30.7076 341.756 30.5966 342.028 30.3745C342.3 30.1491 342.502 29.8475 342.634 29.4697C342.77 29.0918 342.838 28.6709 342.838 28.2069C342.838 27.7395 342.77 27.317 342.634 26.9391C342.502 26.558 342.3 26.2547 342.028 26.0293C341.756 25.8039 341.418 25.6913 341.014 25.6913C340.599 25.6913 340.255 25.8039 339.98 26.0293C339.708 26.2547 339.504 26.558 339.368 26.9391C339.235 27.317 339.169 27.7395 339.169 28.2069C339.169 28.6709 339.235 29.0918 339.368 29.4697C339.504 29.8475 339.708 30.1491 339.98 30.3745C340.255 30.5966 340.599 30.7076 341.014 30.7076ZM347.99 27.5258V32.0002H346.19V24.3638H347.911V25.6614H348C348.176 25.2339 348.456 24.8941 348.84 24.6422C349.228 24.3904 349.707 24.2644 350.277 24.2644C350.804 24.2644 351.263 24.3771 351.654 24.6025C352.049 24.8279 352.353 25.1543 352.569 25.5819C352.788 26.0094 352.895 26.5281 352.892 27.138V32.0002H351.092V27.4164C351.092 26.906 350.96 26.5066 350.695 26.2182C350.433 25.9299 350.07 25.7857 349.606 25.7857C349.291 25.7857 349.011 25.8553 348.766 25.9945C348.524 26.1304 348.333 26.3276 348.194 26.5861C348.058 26.8447 347.99 27.1579 347.99 27.5258ZM359.35 27.0187V28.5002H354.766V27.0187H359.35ZM364.716 34.8638V24.3638H366.486V25.6266H366.59C366.683 25.441 366.814 25.2438 366.983 25.035C367.152 24.8229 367.381 24.6422 367.669 24.4931C367.957 24.3406 368.325 24.2644 368.773 24.2644C369.363 24.2644 369.894 24.4152 370.368 24.7168C370.846 25.0151 371.224 25.4576 371.502 26.0442C371.784 26.6276 371.925 27.3435 371.925 28.192C371.925 29.0305 371.787 29.7431 371.512 30.3297C371.237 30.9164 370.862 31.3638 370.388 31.6721C369.914 31.9803 369.377 32.1344 368.778 32.1344C368.34 32.1344 367.977 32.0615 367.689 31.9157C367.4 31.7698 367.168 31.5942 366.993 31.3887C366.82 31.1799 366.686 30.9827 366.59 30.7971H366.515V34.8638H364.716ZM366.481 28.182C366.481 28.6759 366.55 29.1084 366.689 29.4796C366.832 29.8508 367.036 30.1408 367.301 30.3496C367.569 30.5551 367.894 30.6579 368.275 30.6579C368.673 30.6579 369.006 30.5518 369.275 30.3397C369.543 30.1243 369.745 29.8309 369.881 29.4597C370.02 29.0852 370.09 28.6593 370.09 28.182C370.09 27.7081 370.022 27.2871 369.886 26.9192C369.75 26.5513 369.548 26.263 369.28 26.0542C369.011 25.8454 368.676 25.741 368.275 25.741C367.891 25.741 367.564 25.8421 367.296 26.0442C367.028 26.2464 366.824 26.5298 366.684 26.8944C366.549 27.259 366.481 27.6882 366.481 28.182ZM373.466 32.0002V24.3638H375.211V25.6366H375.29C375.43 25.1957 375.668 24.856 376.006 24.6174C376.348 24.3754 376.737 24.2545 377.175 24.2545C377.274 24.2545 377.385 24.2594 377.508 24.2694C377.634 24.276 377.738 24.2876 377.821 24.3042V25.9597C377.745 25.9332 377.624 25.91 377.458 25.8901C377.296 25.8669 377.138 25.8553 376.986 25.8553C376.657 25.8553 376.363 25.9266 376.101 26.0691C375.842 26.2083 375.638 26.4022 375.489 26.6508C375.34 26.8993 375.265 27.186 375.265 27.5109V32.0002H373.466ZM379.017 32.0002V24.3638H380.816V32.0002H379.017ZM379.921 23.28C379.636 23.28 379.391 23.1856 379.186 22.9966C378.98 22.8044 378.877 22.5741 378.877 22.3056C378.877 22.0338 378.98 21.8035 379.186 21.6145C379.391 21.4223 379.636 21.3262 379.921 21.3262C380.21 21.3262 380.455 21.4223 380.657 21.6145C380.863 21.8035 380.965 22.0338 380.965 22.3056C380.965 22.5741 380.863 22.8044 380.657 22.9966C380.455 23.1856 380.21 23.28 379.921 23.28ZM382.667 32.0002V24.3638H384.387V25.6614H384.477C384.636 25.2239 384.899 24.8825 385.267 24.6373C385.635 24.3887 386.074 24.2644 386.585 24.2644C387.102 24.2644 387.537 24.3904 387.892 24.6422C388.25 24.8908 388.502 25.2306 388.648 25.6614H388.727C388.896 25.2372 389.181 24.8991 389.582 24.6472C389.987 24.392 390.466 24.2644 391.019 24.2644C391.722 24.2644 392.295 24.4865 392.739 24.9306C393.183 25.3747 393.406 26.0227 393.406 26.8745V32.0002H391.601V27.1529C391.601 26.6789 391.475 26.3326 391.223 26.1138C390.971 25.8918 390.663 25.7807 390.298 25.7807C389.864 25.7807 389.524 25.9166 389.279 26.1884C389.037 26.4569 388.916 26.8065 388.916 27.2374V32.0002H387.151V27.0783C387.151 26.6839 387.032 26.369 386.793 26.1337C386.558 25.8984 386.25 25.7807 385.869 25.7807C385.61 25.7807 385.375 25.847 385.163 25.9796C384.951 26.1089 384.781 26.2928 384.656 26.5314C384.53 26.7668 384.467 27.0419 384.467 27.3567V32.0002H382.667ZM397.429 32.1543C396.945 32.1543 396.509 32.0681 396.121 31.8958C395.737 31.7201 395.432 31.4616 395.206 31.1202C394.984 30.7788 394.873 30.3579 394.873 29.8574C394.873 29.4266 394.953 29.0703 395.112 28.7886C395.271 28.5068 395.488 28.2814 395.763 28.1124C396.038 27.9434 396.348 27.8158 396.693 27.7296C397.041 27.6401 397.401 27.5755 397.772 27.5357C398.219 27.4893 398.582 27.4479 398.861 27.4114C399.139 27.3716 399.341 27.312 399.467 27.2324C399.596 27.1496 399.661 27.022 399.661 26.8496V26.8198C399.661 26.4453 399.55 26.1553 399.328 25.9498C399.106 25.7443 398.786 25.6415 398.368 25.6415C397.928 25.6415 397.578 25.7377 397.319 25.9299C397.064 26.1221 396.892 26.3492 396.802 26.611L395.122 26.3724C395.255 25.9083 395.473 25.5206 395.778 25.209C396.083 24.8941 396.456 24.6588 396.897 24.503C397.338 24.344 397.825 24.2644 398.358 24.2644C398.726 24.2644 399.093 24.3075 399.457 24.3937C399.822 24.4798 400.155 24.6224 400.456 24.8212C400.758 25.0168 401 25.2836 401.182 25.6216C401.368 25.9597 401.461 26.3823 401.461 26.8894V32.0002H399.731V30.9512H399.671C399.562 31.1633 399.407 31.3622 399.209 31.5478C399.013 31.7301 398.766 31.8776 398.468 31.9903C398.173 32.0996 397.827 32.1543 397.429 32.1543ZM397.896 30.8319C398.257 30.8319 398.571 30.7606 398.836 30.6181C399.101 30.4723 399.305 30.28 399.447 30.0414C399.593 29.8028 399.666 29.5426 399.666 29.2609V28.361C399.61 28.4074 399.514 28.4505 399.378 28.4903C399.245 28.53 399.096 28.5648 398.93 28.5947C398.765 28.6245 398.6 28.651 398.438 28.6742C398.276 28.6974 398.135 28.7173 398.015 28.7339C397.747 28.7703 397.507 28.83 397.295 28.9128C397.082 28.9957 396.915 29.1117 396.792 29.2609C396.67 29.4067 396.608 29.5956 396.608 29.8276C396.608 30.1591 396.729 30.4093 396.971 30.5783C397.213 30.7474 397.522 30.8319 397.896 30.8319ZM403.27 32.0002V24.3638H405.015V25.6366H405.095C405.234 25.1957 405.473 24.856 405.811 24.6174C406.152 24.3754 406.542 24.2545 406.979 24.2545C407.079 24.2545 407.19 24.2594 407.312 24.2694C407.438 24.276 407.543 24.2876 407.626 24.3042V25.9597C407.549 25.9332 407.428 25.91 407.263 25.8901C407.1 25.8669 406.943 25.8553 406.79 25.8553C406.462 25.8553 406.167 25.9266 405.905 26.0691C405.647 26.2083 405.443 26.4022 405.294 26.6508C405.145 26.8993 405.07 27.186 405.07 27.5109V32.0002H403.27ZM410.172 34.8638C409.927 34.8638 409.7 34.844 409.491 34.8042C409.286 34.7677 409.122 34.7246 408.999 34.6749L409.417 33.2729C409.678 33.3492 409.912 33.3856 410.118 33.3823C410.323 33.379 410.504 33.3144 410.659 33.1884C410.819 33.0658 410.953 32.8603 411.062 32.5719L411.216 32.1593L408.447 24.3638H410.356L412.116 30.1309H412.196L413.961 24.3638H415.875L412.817 32.9249C412.675 33.3293 412.486 33.6756 412.25 33.964C412.015 34.2556 411.727 34.4777 411.385 34.6302C411.047 34.7859 410.643 34.8638 410.172 34.8638ZM421.749 27.0187V28.5002H417.165V27.0187H421.749ZM426.972 32.1493C426.21 32.1493 425.556 31.982 425.009 31.6472C424.465 31.3125 424.046 30.8501 423.751 30.2601C423.459 29.6669 423.313 28.9841 423.313 28.2118C423.313 27.4363 423.463 26.7519 423.761 26.1586C424.059 25.562 424.48 25.098 425.024 24.7665C425.57 24.4318 426.217 24.2644 426.963 24.2644C427.582 24.2644 428.131 24.3788 428.608 24.6074C429.089 24.8328 429.472 25.1527 429.757 25.567C430.042 25.9779 430.204 26.4585 430.244 27.0087H428.524C428.454 26.6408 428.288 26.3342 428.026 26.089C427.768 25.8404 427.422 25.7161 426.987 25.7161C426.619 25.7161 426.296 25.8155 426.018 26.0144C425.74 26.21 425.522 26.4917 425.367 26.8596C425.214 27.2275 425.138 27.6683 425.138 28.182C425.138 28.7024 425.214 29.1498 425.367 29.5243C425.519 29.8956 425.733 30.1823 426.008 30.3844C426.286 30.5833 426.613 30.6827 426.987 30.6827C427.253 30.6827 427.49 30.633 427.698 30.5336C427.91 30.4308 428.088 30.2833 428.23 30.0911C428.373 29.8989 428.471 29.6652 428.524 29.3901H430.244C430.201 29.9304 430.042 30.4093 429.767 30.8269C429.491 31.2412 429.117 31.566 428.643 31.8013C428.169 32.0333 427.612 32.1493 426.972 32.1493ZM435.053 32.1493C434.307 32.1493 433.661 31.9853 433.114 31.6572C432.567 31.329 432.143 30.87 431.841 30.28C431.543 29.6901 431.393 29.0007 431.393 28.2118C431.393 27.423 431.543 26.732 431.841 26.1387C432.143 25.5454 432.567 25.0847 433.114 24.7566C433.661 24.4285 434.307 24.2644 435.053 24.2644C435.798 24.2644 436.445 24.4285 436.991 24.7566C437.538 25.0847 437.961 25.5454 438.259 26.1387C438.561 26.732 438.712 27.423 438.712 28.2118C438.712 29.0007 438.561 29.6901 438.259 30.28C437.961 30.87 437.538 31.329 436.991 31.6572C436.445 31.9853 435.798 32.1493 435.053 32.1493ZM435.062 30.7076C435.467 30.7076 435.805 30.5966 436.077 30.3745C436.348 30.1491 436.551 29.8475 436.683 29.4697C436.819 29.0918 436.887 28.6709 436.887 28.2069C436.887 27.7395 436.819 27.317 436.683 26.9391C436.551 26.558 436.348 26.2547 436.077 26.0293C435.805 25.8039 435.467 25.6913 435.062 25.6913C434.648 25.6913 434.304 25.8039 434.028 26.0293C433.757 26.2547 433.553 26.558 433.417 26.9391C433.284 27.317 433.218 27.7395 433.218 28.2069C433.218 28.6709 433.284 29.0918 433.417 29.4697C433.553 29.8475 433.757 30.1491 434.028 30.3745C434.304 30.5966 434.648 30.7076 435.062 30.7076ZM442.039 27.5258V32.0002H440.239V24.3638H441.959V25.6614H442.049C442.224 25.2339 442.505 24.8941 442.889 24.6422C443.277 24.3904 443.756 24.2644 444.326 24.2644C444.853 24.2644 445.312 24.3771 445.703 24.6025C446.097 24.8279 446.402 25.1543 446.618 25.5819C446.836 26.0094 446.944 26.5281 446.941 27.138V32.0002H445.141V27.4164C445.141 26.906 445.009 26.5066 444.743 26.2182C444.482 25.9299 444.119 25.7857 443.655 25.7857C443.34 25.7857 443.06 25.8553 442.814 25.9945C442.573 26.1304 442.382 26.3276 442.243 26.5861C442.107 26.8447 442.039 27.1579 442.039 27.5258ZM452.584 24.3638V25.7559H448.194V24.3638H452.584ZM449.278 22.5343H451.077V29.7033C451.077 29.9453 451.114 30.1309 451.187 30.2601C451.263 30.3861 451.362 30.4723 451.485 30.5187C451.608 30.5651 451.743 30.5883 451.893 30.5883C452.005 30.5883 452.108 30.58 452.201 30.5634C452.297 30.5468 452.37 30.5319 452.42 30.5187L452.723 31.9256C452.627 31.9588 452.489 31.9952 452.31 32.035C452.135 32.0748 451.919 32.098 451.664 32.1046C451.213 32.1179 450.807 32.0499 450.446 31.9008C450.085 31.7483 449.798 31.513 449.586 31.1948C449.377 30.8766 449.274 30.4789 449.278 30.0016V22.5343ZM456.286 32.1543C455.802 32.1543 455.366 32.0681 454.979 31.8958C454.594 31.7201 454.289 31.4616 454.064 31.1202C453.842 30.7788 453.731 30.3579 453.731 29.8574C453.731 29.4266 453.81 29.0703 453.969 28.7886C454.129 28.5068 454.346 28.2814 454.621 28.1124C454.896 27.9434 455.206 27.8158 455.55 27.7296C455.898 27.6401 456.258 27.5755 456.629 27.5357C457.077 27.4893 457.44 27.4479 457.718 27.4114C457.996 27.3716 458.199 27.312 458.325 27.2324C458.454 27.1496 458.518 27.022 458.518 26.8496V26.8198C458.518 26.4453 458.407 26.1553 458.185 25.9498C457.963 25.7443 457.643 25.6415 457.226 25.6415C456.785 25.6415 456.435 25.7377 456.177 25.9299C455.922 26.1221 455.749 26.3492 455.66 26.611L453.979 26.3724C454.112 25.9083 454.331 25.5206 454.636 25.209C454.941 24.8941 455.313 24.6588 455.754 24.503C456.195 24.344 456.682 24.2644 457.216 24.2644C457.584 24.2644 457.95 24.3075 458.315 24.3937C458.679 24.4798 459.012 24.6224 459.314 24.8212C459.616 25.0168 459.857 25.2836 460.04 25.6216C460.225 25.9597 460.318 26.3823 460.318 26.8894V32.0002H458.588V30.9512H458.528C458.419 31.1633 458.265 31.3622 458.066 31.5478C457.871 31.7301 457.624 31.8776 457.325 31.9903C457.03 32.0996 456.684 32.1543 456.286 32.1543ZM456.754 30.8319C457.115 30.8319 457.428 30.7606 457.693 30.6181C457.958 30.4723 458.162 30.28 458.305 30.0414C458.451 29.8028 458.523 29.5426 458.523 29.2609V28.361C458.467 28.4074 458.371 28.4505 458.235 28.4903C458.103 28.53 457.953 28.5648 457.788 28.5947C457.622 28.6245 457.458 28.651 457.295 28.6742C457.133 28.6974 456.992 28.7173 456.873 28.7339C456.604 28.7703 456.364 28.83 456.152 28.9128C455.94 28.9957 455.772 29.1117 455.65 29.2609C455.527 29.4067 455.466 29.5956 455.466 29.8276C455.466 30.1591 455.587 30.4093 455.829 30.5783C456.071 30.7474 456.379 30.8319 456.754 30.8319ZM462.128 32.0002V24.3638H463.928V32.0002H462.128ZM463.033 23.28C462.748 23.28 462.502 23.1856 462.297 22.9966C462.091 22.8044 461.989 22.5741 461.989 22.3056C461.989 22.0338 462.091 21.8035 462.297 21.6145C462.502 21.4223 462.748 21.3262 463.033 21.3262C463.321 21.3262 463.566 21.4223 463.768 21.6145C463.974 21.8035 464.077 22.0338 464.077 22.3056C464.077 22.5741 463.974 22.8044 463.768 22.9966C463.566 23.1856 463.321 23.28 463.033 23.28ZM467.578 27.5258V32.0002H465.778V24.3638H467.498V25.6614H467.588C467.764 25.2339 468.044 24.8941 468.428 24.6422C468.816 24.3904 469.295 24.2644 469.865 24.2644C470.392 24.2644 470.851 24.3771 471.242 24.6025C471.636 24.8279 471.941 25.1543 472.157 25.5819C472.376 26.0094 472.483 26.5281 472.48 27.138V32.0002H470.68V27.4164C470.68 26.906 470.548 26.5066 470.282 26.2182C470.021 25.9299 469.658 25.7857 469.194 25.7857C468.879 25.7857 468.599 25.8553 468.354 25.9945C468.112 26.1304 467.921 26.3276 467.782 26.5861C467.646 26.8447 467.578 27.1579 467.578 27.5258ZM477.69 32.1493C476.925 32.1493 476.263 31.9903 475.706 31.6721C475.153 31.3506 474.727 30.8965 474.429 30.3099C474.131 29.7199 473.981 29.0255 473.981 28.2268C473.981 27.4413 474.131 26.7519 474.429 26.1586C474.73 25.562 475.151 25.098 475.692 24.7665C476.232 24.4318 476.867 24.2644 477.596 24.2644C478.066 24.2644 478.51 24.3406 478.928 24.4931C479.349 24.6422 479.72 24.8743 480.042 25.1891C480.367 25.504 480.622 25.905 480.807 26.3922C480.993 26.8761 481.086 27.4529 481.086 28.1224V28.6742H474.827V27.4611H479.361C479.357 27.1164 479.283 26.8099 479.137 26.5414C478.991 26.2696 478.787 26.0558 478.525 25.9001C478.267 25.7443 477.965 25.6664 477.621 25.6664C477.253 25.6664 476.93 25.7559 476.651 25.9349C476.373 26.1105 476.156 26.3425 476 26.6309C475.847 26.9159 475.769 27.2291 475.766 27.5705V28.6295C475.766 29.0736 475.847 29.4547 476.01 29.7729C476.172 30.0878 476.399 30.3297 476.691 30.4988C476.983 30.6645 477.324 30.7474 477.715 30.7474C477.977 30.7474 478.214 30.7109 478.426 30.638C478.638 30.5618 478.822 30.4507 478.978 30.3049C479.134 30.1591 479.251 29.9784 479.331 29.763L481.011 29.9519C480.905 30.396 480.703 30.7838 480.405 31.1153C480.11 31.4434 479.732 31.6986 479.271 31.8809C478.81 32.0599 478.283 32.1493 477.69 32.1493ZM482.608 32.0002V24.3638H484.353V25.6366H484.433C484.572 25.1957 484.811 24.856 485.149 24.6174C485.49 24.3754 485.88 24.2545 486.317 24.2545C486.417 24.2545 486.528 24.2594 486.65 24.2694C486.776 24.276 486.881 24.2876 486.963 24.3042V25.9597C486.887 25.9332 486.766 25.91 486.6 25.8901C486.438 25.8669 486.281 25.8553 486.128 25.8553C485.8 25.8553 485.505 25.9266 485.243 26.0691C484.985 26.2083 484.781 26.4022 484.632 26.6508C484.483 26.8993 484.408 27.186 484.408 27.5109V32.0002H482.608Z" fill="white"/>
<path d="M239 25H297" stroke="#D0D1D2" stroke-width="2" stroke-dasharray="2 2"/>
<path d="M157 25H205" stroke="#D0D1D2" stroke-width="2" stroke-dasharray="2 2"/>
</g>
<defs>
<clipPath id="clip0_3821_4221">
<rect width="500" height="52" fill="white"/>
</clipPath>
</defs>
</svg>
